<?xml version="1.0" encoding="UTF-8"?>
<svg xmlns="http://www.w3.org/2000/svg" viewBox="0 0 234 380" width="234" height="380">
<path d="M118.25 28.32C117.88 30.74 118.94 33.81 117.19 35.75C113.73 35.76 113.54 28.21 115.21 25.97C116.59 24.12 119.86 24.45 121.83 23.59C126.82 21.42 129 14.98 125.92 10.34C122.03 4.49 112.41 4.69 108.32 10.07C106.59 12.34 107.26 17.43 103.68 16.75C101.44 12.5 105.02 7.59 108.36 5.11C114.04 0.88 122.21 1.8 127.33 6.43C132.88 11.47 131.58 21.72 125.43 25.68C123.13 27.16 120.75 27.4 118.25 28.32ZM114.75 46.74C112.97 44.17 114.88 39.4 118.35 41.91C122.03 44.59 117.63 47.36 114.75 46.74ZM160.25 167.2C167.12 164.78 179.14 156.57 185.61 152.36C187.73 150.99 191.23 150.07 192.82 148.06C194.87 145.47 192.26 140.78 198.37 136.12C201.7 133.57 215.12 128.57 215.6 136.25C215.68 137.43 214.95 138.62 214.73 139.75C218.05 140.62 234.93 141.46 227.85 149.61C222.56 155.71 210.32 155.97 203.09 154.72C200.91 154.34 195.62 150.95 194.29 151.49C191.61 152.57 188.99 154.75 186.54 156.28C181.06 159.7 175.28 162.62 169.82 166.06C167.53 167.51 162.53 171.72 159.78 171.39C157.33 171.1 151.39 164.77 149.23 163.01C142.63 157.65 135.76 152.51 129.38 146.85C126.26 144.07 122.18 139.45 118.25 138.13C117.21 141.98 117.89 146.75 117.86 150.75C117.8 159.57 117.68 168.43 117.95 177.25C118.27 188.35 117.02 199.69 118.08 210.75C118.58 215.99 120.15 221.12 120.87 226.27C124.3 250.73 129.41 274.86 132.84 299.3C134.89 313.83 137.2 328.36 139.97 342.76C140.89 347.5 140.33 353.94 142.75 358.14C150.06 357.71 157.53 354.76 163.17 361.6C164.34 363.03 165.15 365.04 164.69 366.91C162.57 375.54 140.37 374.76 138.28 366.47C137.71 364.25 139.35 362.5 139.1 360.25C138.22 352.27 136.4 344.13 135.21 336.12C132.41 317.28 129.12 298.56 126.04 279.75C125.17 274.4 123.74 269.19 123.07 263.75C121.88 254.11 119.56 244.73 118.19 235.16C117.74 232.07 118.32 226.73 115.75 224.63C114.28 227.94 114.32 231.67 113.82 235.18C112.75 242.71 111.14 250.21 109.87 257.72C105.43 283.93 100.49 310.15 96.76 336.51C95.62 344.54 93.56 352.69 92.91 360.75C92.74 362.87 94.29 364.74 93.63 366.87C91.21 374.69 69.53 375.36 67.23 367.09C64.87 358.62 77.87 356.32 83.25 356.94C85.24 357.17 87.29 358.35 89.25 358.16C91.79 353.5 91.13 346.63 92.23 341.44C95.19 327.55 96.99 313.33 99.05 299.25C102.62 274.74 107.53 250.4 111.19 225.82C111.84 221.47 113.4 217.08 113.86 212.73C115.09 200.97 113.65 189.01 114.09 177.25C114.38 169.41 114.06 161.59 114.08 153.75C114.1 148.68 115.05 142.95 113.75 138.01C99.92 149.19 86.08 160.37 72.25 171.55C66.52 169.84 51.43 160.15 45.8 156.46C43.62 155.03 40.24 152.17 37.66 151.59C35.28 151.05 31.44 154.17 28.86 154.68C22.71 155.89 7.01 155.2 3.46 148.78C-0.99 140.71 13.76 140.68 17.41 139.75C14.07 128.42 28.42 131.9 33.62 136.13C39.83 141.17 36.86 144.82 39.18 148.06C40.68 150.15 44.48 151.22 46.65 152.58C52.32 156.16 58.28 159.23 63.94 162.81C66.25 164.27 69.07 166.64 71.75 167.07C76.25 164.93 80.47 160.29 84.29 157.02C91.02 151.27 97.95 145.67 104.88 140.14C108.15 137.52 114.79 133.75 113.75 129.25C107.19 129.51 97.17 135.58 90.74 133.63C87.05 132.51 82.8 118.75 84.22 115.42C84.98 113.62 88.39 113.78 89.91 112.75C88.81 108.84 86.46 105.43 86.09 101.25C85.68 96.56 87.36 90.01 86.7 86.25C80.91 85.58 75.05 85.85 69.25 85.04C67.1 84.74 64.02 84.77 62.94 82.75C63.54 79.76 66.48 79.42 68.87 78.14C73.67 75.58 78.67 73.29 83.44 70.68C88.6 67.86 93.01 63.57 98.49 61.26C115.35 54.15 137.2 53.11 148.89 69.86C156.05 80.1 156.16 92.78 153.24 104.44C152.65 106.82 152.25 109.48 150.78 111.55C149.72 113.04 147.17 114.42 145.6 115.33C139.38 118.9 132.74 122.4 125.97 124.72C124.15 125.35 119.18 126.13 118.23 127.95C115.73 132.71 122.97 136.67 126.01 139.24C133.24 145.35 140.63 151.33 147.99 157.26C151.89 160.4 155.81 165.02 160.25 167.2ZM91.48 129.75C98.01 131.53 106.5 127.23 112.76 125.51C121.96 122.98 131.91 119.42 140.06 114.3C142.21 112.95 146.32 111.69 147.8 109.58C152.62 102.68 152.14 86.75 149.68 79.09C143.97 61.28 123.27 56.92 107.28 61.54C99.6 63.76 93.55 68.53 86.98 72.73C83.63 74.86 73.05 78.68 71.25 81.26C74.17 82.98 79.37 82.44 82.75 82.52C93.67 82.78 104.26 79.18 115.25 79.21C122.3 79.23 130.06 81.24 132.74 88.48C140.48 109.35 114.96 115.14 100.32 116.71C96 117.17 91.79 115.65 87.75 117.81C86.88 121.18 90.02 126.71 91.48 129.75ZM91.36 86.25C89.07 92.57 87.89 108.54 95.05 112.69C97.44 114.08 101.61 112.95 104.21 112.68C112.83 111.79 126.92 108.74 129.81 99.11C130.67 96.28 130.4 92.2 129.15 89.62C124.57 80.14 110.42 82.99 101.75 84.05C98.5 84.44 94.26 84.71 91.36 86.25ZM6.74 146.75C9.92 152.11 30.99 153.49 34.4 148.14C38.83 141.17 23.6 132.76 20.21 136.75C22.42 138.42 24.62 140.08 26.82 141.75C25.25 145.87 8.99 140.51 6.74 146.75ZM211.75 136.5C206.26 133.75 192.77 141.52 197.74 148.51C200.85 152.88 214.39 151.45 218.98 150.25C221.1 149.69 224.67 148.96 225.25 146.57C221.93 140.6 209.86 145.58 205.55 142.75C205.54 139.2 210.64 139.81 211.75 136.5ZM77.77 360.24C75.22 360.56 68.3 364.14 71.67 367.58C73.91 369.88 88.25 369.69 89.74 366.52C92.36 360.9 80.75 359.88 77.77 360.24ZM160.75 366.99C162.26 358.09 142.84 358.39 142.08 364.76C141.39 370.61 157.7 369.94 160.75 366.99Z" fill="#0e0e0e" fill-rule="evenodd" stroke="#0e0e0e" stroke-width="0.25" stroke-linejoin="round"/>
</svg>