<?xml version="1.0" encoding="UTF-8"?>
<svg xmlns="http://www.w3.org/2000/svg" viewBox="0 0 510 303" width="510" height="303">
<path d="M237.64 96.25C236.66 98.62 238.4 111.77 237.99 116.25C236.58 131.47 228.99 158.35 216.92 168.64C210.16 174.4 194.98 175.12 188.25 180.25C188.87 182.49 197.98 186.7 200.45 188.3C211.89 195.71 224.45 201.68 233.99 211.76C236.8 214.71 245.47 220.46 242.71 225.47C241.04 228.53 237.45 225.83 235.58 224.68C229.02 220.67 223.41 215.13 216.18 212.09C212.09 210.38 206.39 208.45 201.94 209.25C198.33 209.91 194.39 212.29 190.75 212.23C182.68 212.09 169.03 206.11 161.75 207.16C160.42 212.91 159.08 218.66 157.75 224.41C160.53 223.91 162.76 221.95 165.51 221.24C173.25 219.23 181.58 218.67 189.26 221.43C215.21 230.78 221.17 265.6 200.37 283.61C178.75 302.34 143.8 289.43 139.38 261.25C137.68 250.46 142.31 241.38 147.92 232.75C147.07 230.83 138.76 220.1 137.06 219.22C135.47 218.41 133.44 218.39 131.74 217.52C124.18 213.64 117.05 208.79 109.69 204.54C106.16 202.51 101.78 200.82 98.99 197.75C95.47 193.89 99.67 190.26 103.75 190.35C105.89 190.4 107.76 191.49 109.75 191.93C111.55 189.47 111.66 178.14 111.47 174.75C109.14 172.79 102.65 171.96 101.83 168.74C101.22 166.4 102.92 162.85 103.23 160.43C104.15 153.26 105.55 142.06 101 135.75C96.01 138.25 91.02 140.75 86.03 143.25C85.99 146.71 87.06 150.17 87.04 153.75C87.01 161.62 83.46 170.39 78.87 176.63C62.04 199.45 28.68 193.69 17.31 168.93C5.3 142.78 24.71 112.97 53.75 114.33C61.08 114.67 69.31 118.64 74.7 123.54C77.57 126.14 79.26 130.31 82.25 132.56C86.58 130.25 90.92 127.95 95.25 125.64C94.93 123.06 92.67 121.12 91.13 119.14C85.7 112.13 77.68 106.63 69.66 103.12C66.63 101.8 59.09 99.92 57.61 97.25C58.42 92.09 68.71 93.99 72.47 94.73C86.09 97.41 96.59 106.73 105 117.25C108.37 116.34 111.92 113.02 115.02 111.27C121.05 107.87 127.04 104.18 133.17 100.91C137.15 98.78 140.59 95.04 144.75 98.25C147.91 98.11 147.12 96.48 147.95 94.27C148.3 93.34 149.1 92.84 149.07 91.75C148.97 88.38 137.8 76.56 147.34 76.24C151.49 76.09 157.29 80.02 158.81 83.89C159.48 85.57 158.7 87.8 159.5 89.22C161.25 92.29 168.21 97.28 171.17 99.59C175.1 102.66 179.84 107.55 184.59 109.2C190 111.07 210.4 110.21 216.76 109.52C221.73 108.98 230.42 110.54 234.75 108.41C235.71 105.44 235.02 100.37 233.75 97.49C231.24 96.57 228.81 97.91 226.25 98.13C219.76 98.67 213.25 98.85 206.75 99.3C204.4 99.47 200.69 100.06 198.55 98.7C196.47 97.38 196.43 93.95 195.93 91.76C195.19 88.51 193.65 84.44 196.37 81.69C198.33 81.69 200.29 81.69 202.25 81.69C201.71 77.52 199.89 73.57 199.99 69.25C200.08 64.9 202.08 61.33 202.76 57.25C197.3 53.92 182.84 55.05 179.4 49.75C180.29 46.87 183.23 46.84 185.81 46.14C191.66 44.54 197.74 43.55 203.54 41.74C207.26 40.57 210.7 38.43 214.46 37.23C225.88 33.6 239.44 32.91 250.1 39.16C264.75 47.75 266.95 66.7 260.79 81.06C259.59 83.87 258.72 87.03 256.53 89.29C252.14 93.81 243.36 94.55 237.64 96.25ZM200.63 96.25C209.78 97.96 230.97 94.83 240.25 92.47C244.48 91.4 250.75 90.3 254.1 87.3C259.88 82.1 262.03 66.41 260.55 59.26C256.08 37.68 234.57 35.46 216.77 39.56C212.05 40.64 207.82 43.76 203.24 45C197.62 46.53 191.86 47.5 186.25 49C186.79 51.09 195.74 52 198.16 52.63C209.9 55.69 233.73 48.05 238.86 62.36C239.77 64.93 239.92 68.13 239.46 70.77C236.79 86.15 221.76 86.88 208.75 85.95C205.15 85.7 201.88 84.46 198.25 85.21C197.74 88.38 198.81 93.59 200.63 96.25ZM379.11 39.75C378.16 42.11 362.63 41.53 359.25 41.59C342.42 41.91 325.59 42 308.75 42.05C304.74 42.06 292.92 43.35 290.18 41.25C291.52 38.8 306.23 39.47 309.75 39.41C326.91 39.08 344.08 39 361.25 38.95C364.78 38.94 377.06 37.79 379.11 39.75ZM217.93 56.24C214.95 56.47 209.08 55.39 206.59 57.36C202.13 60.91 202.01 79.66 207.38 82.43C210.06 83.81 213.43 82.96 216.25 83C221.32 83.09 228.58 82.42 232.59 78.82C237.46 74.45 238.18 64.03 233.02 59.73C229.15 56.52 222.76 55.87 217.93 56.24ZM147.25 79.4C146.67 81.18 148.08 85.45 150.3 85.92C151.28 86.13 152.22 85.71 153.22 86.01C154.35 86.34 154.86 87.43 156 87.75C157.04 83.44 151.19 78.9 147.25 79.4ZM439.06 95.25C437.28 96.99 433.24 96.07 430.75 96.05C423.58 95.98 416.41 95.91 409.25 95.58C380.8 94.3 352.23 93.73 323.75 93.09C315.58 92.9 307.42 92.94 299.25 92.56C296.7 92.44 292.46 93.09 291.18 90.75C293.35 89.1 297.03 89.93 299.75 89.95C307.26 90.02 314.75 90.13 322.25 90.48C350.03 91.79 377.94 92.23 405.75 92.9C414.09 93.1 422.42 93.05 430.75 93.44C433.15 93.55 438.15 92.84 439.06 95.25ZM157.25 91.86C155.28 92.74 151.55 94.02 150.44 95.75C151.24 97.92 153.27 99.33 154.18 101.59C155.38 104.54 155.34 107.35 155.93 110.25C159.79 113.01 162.35 111.83 166.24 112.75C167.06 113.73 167.43 115.01 168.36 115.92C169.72 117.25 171.84 117.26 173.36 118.41C175.05 119.67 175.07 121.56 176.38 122.93C177.92 124.55 185.5 126.37 187.94 127.28C191.44 128.57 195.95 131 199.75 130.89C202.09 130.82 205.48 128.38 207.56 127.29C213.3 124.26 226.57 117.4 230.5 112.75C227.78 110.91 221.01 112.45 217.75 112.65C210.12 113.12 202.38 112.77 194.74 112.71C191.5 112.69 187.95 113.48 184.73 112.73C182.17 112.12 180.34 109.93 178.26 108.49C173.46 105.17 168.92 101.57 164.43 97.81C162.11 95.88 159.89 93.28 157.25 91.86ZM64.25 97.17C65.08 98.82 74.93 102.24 77.23 103.5C82.56 106.41 87.89 110.81 91.97 115.29C94.22 117.75 96.04 122 98.75 123.78C100.3 122.94 101.86 122.09 103.41 121.25C102.78 118.05 99.07 114.67 96.78 112.42C89.63 105.35 74.97 94.95 64.25 97.17ZM141.75 100.15C138.57 100.63 135.35 103.19 132.61 104.85C126.98 108.27 121.22 111.49 115.49 114.73C113.8 115.69 110.31 116.78 109.26 118.51C108.71 119.42 108.99 120.72 108.72 121.75C97.93 128.87 85.51 134.47 73.96 140.24C70.13 142.15 57.25 150.3 54.12 150.78C52.27 151.06 51.12 149.25 49.25 149.4C45.55 149.68 43.16 154 45.86 156.88C47.13 158.23 49.29 158.86 51.05 158.28C53.13 157.61 53.29 155.63 54.9 154.68C59.85 151.73 65.8 149.92 70.94 147.21C83.52 140.55 96.32 134.49 108.86 127.64C113.9 124.89 118.68 121.36 123.63 118.37C130.48 114.25 138.74 110.98 144.79 105.75C143.78 103.88 142.76 102.02 141.75 100.15ZM149.25 100.02C148.44 100.43 147.64 100.84 146.83 101.25C147.6 103.08 148.36 104.92 149.13 106.75C147.41 108.99 142.19 109.46 141.35 112.5C140.95 113.95 141.77 115.74 141.69 117.25C141.48 121.38 138.81 127.03 139.77 131.03C140.46 133.91 151.66 145.8 154.16 149.1C156.28 151.89 161.3 159.75 164.25 160.84C166.13 159.52 166.86 156.52 169.26 155.91C173.03 154.93 177.53 157.63 181.06 158.71C189.59 161.32 204.59 166.83 213.25 166.35C217.24 166.14 220.22 159.26 222.15 156.38C228.22 147.34 231.92 136.39 233.62 125.72C234.21 122.07 235.7 118.11 234.75 114.45C232.1 115.04 229.82 117.31 227.5 118.74C222.22 122.02 206.42 133.08 201.22 133.87C197.04 134.5 186.78 130.22 182.56 128.73C180.46 127.99 177.32 126.04 175.25 126.81C175.19 128.06 175.63 129.31 175.29 130.58C174.43 133.71 169.56 134.68 167.51 132.24C163.52 127.51 159.94 120.78 158.75 114.96C155.95 113.87 151.23 114.49 150.49 111.25C151.22 110.42 151.96 109.58 152.7 108.75C152.71 107.02 151.58 106.29 150.38 105.25C151 103.06 151.13 101.58 149.25 100.02ZM137.87 114.25C135.58 114.29 122.11 122.27 121.18 124.25C126.4 125.08 131.63 125.92 136.85 126.75C137.9 123.64 139.47 117.16 137.87 114.25ZM164.46 116.25C163.2 116.17 162.42 116.22 162.25 117.66C163.79 117.88 163.96 117.78 164.46 116.25ZM78.25 134.5C76.79 127.1 63.25 119.59 56.5 118.34C52.25 117.55 47.38 117.9 43.19 118.83C23.74 123.13 12.02 146.1 19.35 164.35C25.59 179.88 42.24 192.21 59.44 186.21C72.29 181.72 81.46 170.17 83 156.75C83.39 153.38 83.96 148.82 82.25 145.74C79.31 145.72 77.26 147.7 74.69 148.91C68.92 151.62 62.48 153.94 57.04 157.3C55.6 158.19 54.98 159.9 53.5 160.73C49.76 162.84 44.14 161.66 42.23 157.55C40.23 153.25 42.55 148.24 46.8 146.55C49.79 145.35 51.91 147.79 54.41 147.2C59.55 145.98 64.77 141.63 69.49 139.26C72.21 137.9 76.24 136.73 78.25 134.5ZM173.05 123.75C172.57 121.11 167.23 116.19 165.18 120.4C164.01 122.83 168.56 129.81 170.75 130.82C171.3 130.3 171.84 129.77 172.39 129.25C172.01 127.97 171.63 126.69 171.25 125.41C171.85 124.85 172.45 124.3 173.05 123.75ZM161.86 164.75C159.49 159.15 145.66 143.75 140.98 138.28C139.24 136.24 135.67 130.05 133.65 129.02C131.42 127.87 117.96 126.71 115.64 127.25C113.19 131.92 116.22 138.74 116.04 143.75C115.64 154.93 114.94 166.1 114.47 177.25C114.3 181.21 114.25 192.78 112.75 195.76C108.82 196.66 105.24 191.76 101.26 194.25C101.3 197.08 105.78 198.97 108.11 200.15C115.19 203.76 121.69 208.33 128.77 211.97C130.64 212.92 133.77 215.78 136.02 215.22C138.3 214.65 140.24 212.19 142.15 210.93C145.94 208.4 150.35 204.29 154.89 203.21C156.15 202.92 157.48 203.27 158.75 203.08C161.66 198.29 160.31 191.05 163.78 186.54C167.29 181.99 174.72 182.51 179.25 179.5C174.25 175.51 169.25 171.51 164.25 167.52C161.89 168.71 157.83 175.64 156.35 178.11C152.31 184.87 146.97 190.75 142.35 197.09C140.6 199.48 138.8 203.39 136.29 205.05C131.25 208.38 114.99 202.96 116.75 195.53C117.09 194.07 118.46 193.05 119.74 192.49C126.85 189.35 131.39 196.04 137.25 198.07C141.42 195.28 144.68 189.25 147.42 185.13C151.89 178.38 158.35 172.07 161.86 164.75ZM110.25 130.85C108.37 131.82 106.48 132.78 104.6 133.75C104.76 140.07 107.04 146.47 107.04 153.75C107.04 158.28 104.82 163.01 105.25 167.47C107.33 168.56 109.42 169.66 111.5 170.75C113.21 167.54 112.6 161.87 112.6 158.23C112.6 152.13 113.51 145.81 112.52 139.75C112 136.53 112.8 133.34 110.25 130.85ZM495.1 147.25C492.94 149.33 486.78 148.1 483.75 148.07C473.5 147.96 463.25 147.95 453 147.81C413.59 147.26 374.17 146.23 334.75 146C323.41 145.94 312.08 145.78 300.75 145.5C297.73 145.42 290.67 146.46 289.18 143.75C291.81 141.74 297.44 142.9 300.75 142.93C310.83 143.03 320.92 143.04 331 143.19C370.25 143.78 409.5 144.77 448.75 144.99C460.42 145.06 472.08 145.22 483.75 145.52C486.55 145.59 494.04 144.56 495.1 147.25ZM207.52 169.25C194.92 165.92 182.33 162.58 169.74 159.25C168.64 160.92 167.54 162.58 166.44 164.25C168.9 167.66 179.74 177.38 183.77 177.94C185.89 178.24 188.63 176.56 190.59 175.81C195.07 174.11 204.2 172.3 207.52 169.25ZM239.75 223.43C239.92 220.13 231.17 212.82 228.43 210.8C224.8 208.13 221.72 204.81 217.97 202.28C210.95 197.53 202.92 193.42 195.53 189.22C192.18 187.32 187.17 182.21 183.25 182.01C180.96 181.89 167.85 186.52 166.48 188.22C164.86 190.23 162.21 201.21 162.75 203.62C166.04 204.84 169.8 204.72 173.25 205.44C178.45 206.53 184.39 209.29 189.75 208.99C197.18 208.57 202.1 204.62 210.26 206.56C215.58 207.83 224.82 212.75 229.14 216.13C232.02 218.39 236.19 222.78 239.75 223.43ZM134.97 201.75C132.93 197.54 124.68 192.77 120.36 195.75C119.18 201.11 131.66 204.84 134.97 201.75ZM157.65 206.75C154.35 205.91 149.04 209.18 147.04 211.75C147.77 214.45 152.17 219.59 154.75 220.83C157.04 217.93 158.29 210.26 157.65 206.75ZM454.12 207.75C453.05 210.37 446.9 209.22 444.25 209.22C434.42 209.22 424.58 209.22 414.75 209.22C381.25 209.22 347.75 209.22 314.25 209.22C305.58 209.22 296.92 209.22 288.25 209.22C285.22 209.22 280.58 210.11 278.18 208.25C279.59 205.69 284.98 206.78 287.75 206.78C297.58 206.78 307.42 206.78 317.25 206.78C351.25 206.78 385.25 206.78 419.25 206.78C427.75 206.78 436.25 206.78 444.75 206.78C447.47 206.78 452.16 205.89 454.12 207.75ZM143.75 214.07C142.37 215.13 141 216.19 139.62 217.25C141.94 222.01 147.04 226.78 150.6 230.64C156.79 237.37 161.88 246.56 169.25 252.05C170.62 251.12 171.98 250.18 173.35 249.25C172.21 245.98 168.46 242.67 166.22 240.02C161.24 234.14 156.39 228.24 151.27 222.48C148.9 219.82 146.87 215.88 143.75 214.07ZM150.75 235.86C142.15 240.96 140.81 261.03 145.24 269.04C155.15 286.97 179.1 296.74 196.68 282.44C212.18 269.83 214.61 244.8 198.94 231.3C190.88 224.36 180.11 221.39 169.69 223.88C166.62 224.61 162.74 225.17 160.63 227.75C161.26 230.34 164.14 232.88 165.94 234.83C168.72 237.87 174.4 246.77 177.1 248.62C178.38 249.49 179.96 249.46 181.14 250.59C184.34 253.65 185.62 258.83 181.9 262.13C178.37 265.28 173.91 265.65 170.32 262.44C167.56 259.97 168.8 256.61 166.74 254C161.78 247.74 156.08 241.82 150.75 235.86ZM175.51 252.3C170.35 253.36 169.85 261.31 175.75 261.35C182.33 261.38 181.96 250.98 175.51 252.3ZM373.12 270.25C371.41 271.88 368.11 271.19 365.75 271.17C359.42 271.11 353.08 271.06 346.75 271.05C321.08 271 295.42 270.91 269.75 270.6C262.42 270.51 255.08 270.4 247.75 270.3C245.24 270.27 241.46 271.07 240.17 268.75C242.27 267.14 245.62 267.82 248.25 267.84C254.58 267.89 260.92 267.94 267.25 267.95C292.59 268 317.92 268.09 343.25 268.4C350.75 268.49 358.25 268.59 365.75 268.7C368.11 268.74 372.16 267.88 373.12 270.25Z" fill="#1f1f1f" fill-rule="evenodd" stroke="#1f1f1f" stroke-width="0.25" stroke-linejoin="round"/>
</svg>