<?xml version="1.0" encoding="UTF-8"?>
<svg xmlns="http://www.w3.org/2000/svg" viewBox="0 0 469 299" width="469" height="299">
<path d="M172.86 85.75C173.87 87.94 176.08 89.69 177.59 91.63C179.86 94.54 181.86 97.8 183.79 100.94C191.44 113.37 198.92 135 196.77 149.6C195.93 155.27 189.05 164.16 185.91 169.15C184.55 171.32 181.51 174.66 181.75 177.25C186.98 178.27 193.91 175.7 199.32 175.2C211.68 174.06 222.53 171.83 235.25 172.91C238.94 173.23 251.61 173.25 252.16 178.25C252.56 182.01 248.35 182.01 245.75 182.19C238.28 182.69 230.6 182.51 223.28 184.44C218.95 185.58 213.34 187.65 210.32 191.08C207.83 193.91 206.11 198.64 202.96 200.7C196.38 205.02 182.72 209.36 177.59 214.25C179.98 219.59 182.36 224.93 184.75 230.27C186.03 229.9 190.58 221.34 192.15 219.38C195.91 214.68 201.86 210.83 207.45 208.71C235.02 198.26 261.56 225.23 254.85 252.69C248.4 279.1 213.77 288.9 193.85 270.88C185.56 263.39 184.15 253.59 182.61 243.25C180.48 241.95 168.33 239.14 165.75 239.35C164 239.49 162.1 241.05 160.19 241.34C152.17 242.58 144.06 244 136 244.79C132.34 245.15 121.26 248.45 119.18 244.12C116.37 238.26 124.79 237.08 127.34 234.75C126.9 231.68 120.51 223.17 118.25 220.63C114.92 220.28 109.52 223.79 106.56 221.69C104.83 220.47 103.95 216.69 102.9 214.85C100.23 210.19 91.01 196.57 85.25 196.84C83.01 201.81 80.78 206.78 78.54 211.75C80.48 214.72 84.14 216.87 86.32 219.9C90.83 226.15 93.35 234.68 93.67 242.25C94.87 270.54 65.33 286.62 41.02 274.72C15.37 262.16 11.26 225.68 35.36 209.11C41.82 204.66 50.99 202.5 58.75 203.48C62.03 203.89 65.31 205.54 68.5 205.75C70.56 201.25 72.62 196.75 74.68 192.25C73.02 190.31 70 190.29 67.62 189.68C59.45 187.6 49.19 187.82 41.17 190.37C38.37 191.26 29.78 194.6 27.54 193.25C25.34 189.2 33.4 184.47 36.47 182.74C44.3 178.34 54.35 176.37 63.25 177.25C67.58 177.68 72.77 179.5 77.01 179.25C79.1 176.34 79.98 171.94 81.29 168.55C83.69 162.32 86.21 156.13 88.69 149.92C90.74 144.79 90.69 140.56 96.75 139.69C98.18 137.87 97.63 137.36 96.73 135.54C96.23 134.53 96.51 133.25 95.9 132.35C93.93 129.42 88.82 129.38 85.94 127.79C82.96 126.16 82.15 123.05 85.04 120.79C88.55 118.06 95.33 117.97 99.03 120.24C100.4 121.09 100.88 122.9 102.22 123.58C103.85 124.39 106.95 124.12 108.75 124.18C115.97 124.42 127.32 125.7 134.06 123.75C137.23 122.83 139.49 120.18 142.09 118.32C148.12 114.03 154.39 109.07 159.68 103.94C162.76 100.95 172.34 95.06 173.02 91.25C168.41 83.56 164.91 87.13 157.75 88.06C152.43 88.75 135.26 90.57 130.69 89.2C126.72 88.01 124.52 74.52 127.41 71.7C129.35 71.7 131.3 71.7 133.25 71.7C132.76 67.52 130.9 63.57 131 59.25C131.09 54.9 133.09 51.34 133.78 47.25C128.34 43.87 113.87 45.06 110.41 39.75C111.35 36.71 114.61 36.86 117.25 36.03C123.09 34.21 129.52 33.78 135.21 31.52C146.89 26.87 158.49 22.66 171.29 25.33C194.87 30.25 199.43 53.99 190.82 73.6C186.09 84.38 180.19 80.39 172.86 85.75ZM302.97 29.25C301.52 30.58 298.75 30.04 296.75 30.03C291.42 30.01 286.08 30 280.75 29.97C261.75 29.88 242.75 29.48 223.75 29.22C219.9 29.17 205.82 30.18 203.45 28.25C204.44 26.11 219.05 27 222.25 27.02C242.09 27.1 261.92 27.48 281.75 27.77C287.08 27.85 292.42 27.9 297.75 27.94C299.66 27.95 302.27 27.27 302.97 29.25ZM131.6 86.25C138.6 87.63 158.18 85.47 165.35 83.7C166.35 83.45 167.31 82.68 168.29 82.51C173.51 81.63 180.82 81.15 185.1 77.31C190.88 72.15 193.05 56.39 191.56 49.26C187.06 27.71 165.61 25.39 147.77 29.55C143.06 30.64 138.82 33.77 134.23 34.99C128.6 36.49 122.86 37.42 117.25 39C117.75 41.08 127.04 42.09 129.5 42.75C140.97 45.83 164.64 37.74 169.85 52.37C170.76 54.93 170.9 58.13 170.44 60.76C167.76 76.14 152.77 76.87 139.75 75.94C136.15 75.68 132.88 74.46 129.25 75.19C128.71 78.36 129.81 83.57 131.6 86.25ZM148.92 46.23C145.94 46.45 140.06 45.38 137.58 47.35C133.11 50.91 133 69.65 138.36 72.44C143.2 74.96 160.51 72.64 164.05 68.33C170.51 60.47 167.75 48.55 157.27 46.84C154.61 46.41 151.58 46.04 148.92 46.23ZM387.96 70.75C387.15 73.05 381.54 72.11 379.25 72.15C370.08 72.32 360.92 72.75 351.75 72.88C317.92 73.34 284.07 73.67 250.25 74.65C242.25 74.88 234.25 74.96 226.25 75.01C223.98 75.02 219.48 75.99 218.45 73.75C220.56 72.03 225.5 72.88 228.25 72.82C236.58 72.65 244.91 72.28 253.25 72.14C285.41 71.6 317.61 71.59 349.75 70.53C359.08 70.23 368.41 70.08 377.75 70.01C380.44 69.99 386.02 68.96 387.96 70.75ZM176.75 96.64C174.98 98.66 174.61 102.36 173.68 104.9C171.07 111.96 167.1 126.96 162.75 132.5C160.37 135.54 148.51 138.92 144.57 140.28C142.59 140.97 139.04 141.4 138.08 143.25C138.74 144.33 140.1 144.97 140.46 146.28C141.3 149.37 138.67 152.75 135.42 152.26C129.39 151.36 122.29 147.93 117.86 144.25C114.53 144.69 112.43 148.15 109.07 146.9C109.07 145.52 109.07 144.13 109.07 142.75C107.79 142.47 106.52 142.19 105.25 141.91C104.13 139.44 100.86 136.45 99.89 140.75C101 142.48 102.87 142.58 104.75 143.16C105.46 146.5 101.81 149.37 102.52 152.72C102.91 154.53 105.75 156.33 106.74 158C108.51 160.99 110.09 166.29 112.73 168.52C114.57 170.07 118.02 169.87 120.26 170.39C125.3 171.56 130.34 172.68 135.39 173.8C139.78 174.77 146.09 177.6 150.5 176.75C151.48 174.32 149.92 171.33 151.93 169.18C154.3 166.64 158.88 165.87 162.04 164.74C169.74 161.99 177.44 158.78 184.63 154.86C187.07 153.53 191.02 152.26 192.79 150.07C194.6 147.84 193.9 142.9 193.56 140.25C192.45 131.42 190.7 122.71 187.27 114.49C185.75 110.85 180.06 97.92 176.75 96.64ZM172.25 97.71C168.68 99 165.2 103.12 162.43 105.68C156.63 111.05 150.06 115.73 143.87 120.62C141.54 122.47 139.35 125.07 136.62 126.34C134.19 127.46 131.31 126.87 128.75 127.06C121.92 127.58 107.34 125.89 102.01 127.25C101.25 129.38 98.94 132.08 99.3 134.25C100.69 135.25 102.07 135.05 103.67 135.59C106.96 136.69 110.37 139.43 112.25 142.14C116.42 142.56 118.68 139.99 121.75 137.92C123.47 138.12 124.98 139.1 126.75 138.97C128.68 138.82 130.19 137.7 132.25 137.86C134.08 138.01 135.42 139.55 137.23 139.42C140.87 139.17 145.24 136.66 148.76 135.55C152.01 134.53 157.29 133.47 159.83 131.08C162.66 128.42 166.83 115.57 168.23 111.46C169.5 107.72 173.04 101.58 172.25 97.71ZM98.41 124.25C96.52 120.95 88.77 120.44 86.67 123.75C87.44 125.59 90.99 127.46 93.02 126.74C93.92 126.42 94.35 125.36 95.3 125.07C96.6 124.68 97.44 125.15 98.41 124.25ZM455.97 138.75C455.08 141.25 447.3 140.05 444.75 140.07C433.25 140.12 421.75 140.16 410.25 140.25C371.08 140.56 331.92 140.91 292.75 140.98C282.75 141 272.75 141.01 262.75 141.03C259.74 141.04 253.77 142.14 251.46 140.25C252.59 137.72 260.09 138.94 262.75 138.93C274.08 138.88 285.42 138.84 296.75 138.75C336.25 138.44 375.75 138.1 415.25 138.02C425.25 138 435.25 137.98 445.25 137.97C448.04 137.96 453.96 136.9 455.97 138.75ZM134.23 142.09C132 140.18 125.42 140.25 126.2 144.65C126.65 147.18 134.61 149.46 136.8 149.25C138.22 146.53 136.08 146.43 134.23 145.06C134.23 144.07 134.23 143.08 134.23 142.09ZM123.3 141.75C123.04 141.75 122.77 141.75 122.5 141.75C121.59 143.16 121.58 143.88 123.3 144.25C123.3 143.42 123.3 142.58 123.3 141.75ZM100.71 145.25C98.89 144.6 97.07 143.95 95.25 143.3C92.98 145.64 92.06 149.69 90.93 152.71C88.68 158.74 86.27 164.7 83.9 170.68C83.09 172.73 81.18 175.51 81.24 177.76C81.27 178.79 82.36 179.84 82.81 180.75C78.73 193.03 72.61 205.15 67.15 216.87C64.95 221.59 61.11 233.66 58.39 237.14C57.09 238.81 54.7 238.06 53.34 239.58C50.96 242.27 51.71 247.07 55.78 247.37C57.68 247.5 59.75 246.63 60.66 244.91C61.59 243.17 60.73 241.67 61.23 239.94C61.64 238.53 62.99 237.22 63.66 235.91C65.47 232.37 67.13 228.65 68.76 225.03C74.77 211.71 81.23 198.58 86.74 185C89.13 179.11 90.84 172.83 93.14 166.85C94.89 162.3 101.31 149.3 100.71 145.25ZM189.75 156.23C177.82 161.41 165.89 166.58 153.96 171.75C153.96 173.75 153.96 175.75 153.96 177.75C158.24 179.19 173.29 180.07 176.94 177.68C179.21 176.19 182.24 169.12 183.86 166.62C185.63 163.86 189.56 159.54 189.75 156.23ZM101.25 156.69C99.2 157.84 93.72 172.67 94.25 174.96C98.76 172.39 103.27 169.82 107.78 167.25C107.48 164.26 103.84 158.27 101.25 156.69ZM151.08 181.25C146.09 178.61 139.23 178.21 133.71 176.95C127.75 175.59 121.68 174.54 115.75 173.01C113.23 172.36 109.83 170.78 107.25 170.79C105.6 170.8 92.92 179.2 91.75 180.69C91.89 184.16 98.91 189.48 101.21 192.06C109.57 201.47 116.35 212.4 123.57 222.64C125.33 225.14 132.33 234.4 131.72 236.75C128.86 238.34 122.91 238.34 122.27 242.25C124.84 245.04 132.46 241.99 135.76 241.57C142.3 240.73 148.81 239.61 155.34 238.64C157.35 238.35 160.64 238.49 162.23 236.98C163.97 235.33 163.93 231.53 164.67 229.37C166.14 225.05 166.86 219.23 169.85 215.62C170.69 214.61 171.89 214.01 172.75 213C171.97 207.44 166.14 202.56 166.29 196.75C166.43 191.3 173.54 186.73 173.75 182.1C167.42 182.1 161.08 182.1 154.75 182.1C153.71 184.57 154.85 192.31 155.18 195.25C156.06 203.03 155.96 210.94 156.08 218.75C156.13 221.81 157.19 225.95 156.17 228.89C154.22 234.53 137.97 240.2 135.17 233.63C134.49 232.05 134.9 230.35 135.68 228.93C139.53 221.85 147.29 225.07 152.75 222.53C154.56 214.02 152.54 203.85 152.11 195.25C151.9 190.97 152.43 185.26 151.08 181.25ZM248.49 178.25C243.94 175.11 235.99 175.98 230.73 175.86C226.59 175.76 222.45 175.38 218.3 175.71C211.28 176.26 204.26 178.22 197.24 178.92C192.38 179.41 183.2 179.31 178.93 181.24C176.97 182.13 175.91 185.36 174.78 187.03C173.15 189.41 169.74 193.34 169.47 196.25C169.23 198.8 174.23 209.68 176.25 211.1C179.44 210.11 182.35 207.6 185.35 206.07C190.07 203.67 196.35 202.13 200.41 198.66C206.38 193.57 207.9 186 216.54 183.26C223.73 180.98 231.74 179.53 239.25 179.48C241.68 179.46 246.93 180.06 248.49 178.25ZM78.25 183.53C71.14 178.25 50.67 180.41 42.65 183.39C39.99 184.38 33.94 186.56 32.89 189.25C34.9 189.74 37.32 188.2 39.4 187.71C43.82 186.67 48.22 185.86 52.75 185.56C58.29 185.2 64.03 185.69 69.47 186.74C71.83 187.2 73.81 188.37 76.25 188.41C76.92 186.78 77.58 185.16 78.25 183.53ZM115.45 216.75C113.74 211.79 101.08 196.23 96.91 192.33C94.68 190.24 93.22 187.44 90 186.75C89.04 188.75 88.08 190.75 87.12 192.75C89.65 196.33 94.68 198.67 97.68 202.09C102.17 207.21 104.55 213.35 108.5 218.75C110.9 218.66 113.69 218.52 115.45 216.75ZM436.97 205.75C436.13 208.11 430.1 207.05 427.75 207.07C418.42 207.11 409.08 207.14 399.75 207.25C368.09 207.62 336.42 207.88 304.75 207.98C296.75 208 288.75 208.01 280.75 208.03C278.11 208.04 273.5 208.91 271.46 207.25C272.52 204.88 278.31 205.94 280.75 205.93C289.92 205.89 299.08 205.86 308.25 205.75C340.25 205.37 372.25 205.09 404.25 205.02C412.25 205 420.25 204.98 428.25 204.97C430.7 204.96 435.2 204.12 436.97 205.75ZM66.87 209.75C64.52 207.55 59.37 207.13 56.25 207.1C45.91 206.99 35.66 211.12 29.41 219.65C16.38 237.45 23.28 260.8 41.82 270.97C63 282.58 86.09 270.27 89.79 247.12C91.13 238.69 88.24 230.68 84.21 223.55C82.71 220.9 79.85 216.68 76.75 216.08C74.58 218.11 73.99 221.35 72.73 223.98C70.1 229.48 66.52 235.01 64.56 240.81C63.85 242.92 64.38 244.89 63.21 246.97C61.16 250.6 55.97 251.83 52.46 249.77C48.58 247.49 47.63 241.97 50.07 238.34C51.73 235.87 54.33 236.23 56.19 234.43C57.63 233.03 58.38 229.73 59.18 227.88C61.11 223.41 66.75 214.13 66.87 209.75ZM186.75 244.06C185.48 246.79 186.84 250.93 187.66 253.7C189.91 261.23 195.47 269.89 203.19 273.11C222.52 281.17 246.05 273.62 251.66 251.86C256.7 232.33 242.04 211.11 221.72 210.2C210.56 209.7 200.41 214.62 193.57 223.34C191.7 225.72 189.76 228.15 189.5 231.25C191.48 232.86 195.25 233.05 197.76 233.44C203.07 234.26 210.11 237.36 215.25 237.33C216.62 237.32 217.84 236.4 219.25 236.37C223.94 236.24 228.08 239.88 227.56 244.75C227.05 249.41 223.41 252.7 218.74 252.4C215.17 252.18 214.32 249.25 211.4 248.3C207.33 246.97 190.88 243.99 186.75 244.06ZM174.5 216.75C170.78 217.2 168.52 224.79 169.29 227.75C172.94 228.35 176.6 228.94 180.25 229.54C180.89 226.08 176.6 219.59 174.5 216.75ZM153.25 227C149.39 224.75 138.6 226.31 138.14 231.75C141.23 235.63 152.41 231.73 153.25 227ZM212.8 240.25C209.88 238.39 205.15 238.19 201.76 237.47C194.13 235.83 186.44 234.34 178.74 232.99C175.33 232.39 171.15 230.46 167.72 231.25C167.29 232.75 166.85 234.25 166.42 235.75C169.08 237.85 173.93 237.91 177.23 238.55C184.73 240.01 192.26 241.48 199.74 243.03C203.3 243.76 207.87 245.36 211.46 244.75C211.91 243.25 212.35 241.75 212.8 240.25ZM218.89 239.74C213.3 240.52 214.34 250.42 220.73 248.93C226.15 247.67 224.52 238.96 218.89 239.74ZM392.97 261.25C391.33 262.76 387.52 262.04 385.25 262.03C378.42 262.01 371.58 262 364.75 261.97C340.58 261.87 316.42 261.46 292.25 261.22C286.08 261.16 279.92 261.11 273.75 261.07C271.49 261.05 268.21 261.68 266.46 260.25C267.36 258.24 270.23 258.96 272.25 258.97C278.25 258.98 284.25 259 290.25 259.02C315.42 259.09 340.58 259.5 365.75 259.77C372.58 259.84 379.42 259.9 386.25 259.94C388.33 259.95 392.2 259.09 392.97 261.25Z" fill="#1b1b1b" fill-rule="evenodd" stroke="#1b1b1b" stroke-width="0.25" stroke-linejoin="round"/>
</svg>