<?xml version="1.0" encoding="UTF-8"?>
<svg xmlns="http://www.w3.org/2000/svg" viewBox="0 0 459 291" width="459" height="291">
<path d="M358.88 38.75C357.89 41.13 354.57 41.58 352.28 42.13C347.4 43.31 339.21 43.42 335.25 46.5C337.06 51.77 338.69 56.54 337.69 62.26C337.19 65.08 335.98 67.92 335.75 70.74C337.75 70.74 339.75 70.74 341.75 70.74C343.79 74.08 342.44 87.18 337.99 88.27C332.36 89.64 316.88 87.9 310.82 86.84C307.82 86.32 304.71 84.93 301.67 84.78C299.19 84.66 295.95 88.5 295.72 90.75C298.18 94.84 303.76 98.27 307.41 101.36C313.34 106.37 327.52 120.53 334.05 122.71C336.47 123.51 339.69 123.34 342.25 123.53C347.61 123.92 360.85 124.42 365.73 123.02C368.58 122.2 368.19 118.88 374.53 118.24C377.53 117.94 383.74 118.86 384.88 122.34C386.73 127.94 378.48 128.18 375.43 129.73C372.53 131.21 370.75 134.29 370.25 137.5C371.91 140.36 375.35 138.85 376.75 142.48C380.04 151.03 383.24 159.66 386.48 168.25C387.67 171.42 388.53 176.51 390.75 178.97C404.63 177.46 417.72 175.41 430.61 182.64C433.8 184.43 442.5 189.52 439.75 193.71C436.09 194.87 427.73 190.56 423.64 189.68C414.06 187.63 402.49 187.61 393.29 191.25C392.5 194.4 396.37 202.63 398.5 205.25C401.9 205.75 406.15 203.49 409.75 203.28C417.3 202.83 425.32 204.96 431.64 209.11C456.15 225.21 451.22 262.55 425.56 274.78C400.69 286.64 372.8 270.36 373.19 242.24C373.3 234.71 376.17 225.21 380.98 219.23C383.27 216.38 386.08 214.32 388.56 211.75C388.33 208.61 384 198.55 381.77 196.25C375.85 196.8 367.05 209.59 364.18 214.41C363.08 216.26 362.23 219.98 360.38 221.14C357.39 223 352.35 219.52 349.07 219.75C345.92 224.42 342.77 229.08 339.62 233.75C342.14 236.23 350.27 237.26 347.8 243.11C345.87 247.68 334.63 244.21 331 243.79C322.76 242.85 314.42 241.45 306.25 239.99C304.48 239.67 302.86 238.23 301.23 238.04C298.74 237.75 286.23 240.49 284.25 241.79C282.83 254.48 279.04 265.76 267.66 272.92C246.07 286.53 215.52 272.94 211.47 247.77C207.1 220.64 233.08 197.16 259.55 206.72C267.36 209.54 273.19 215.27 278.01 221.8C279.53 223.86 279.92 227.03 281.75 228.71C283.47 228.04 289.1 215.67 289.65 213.25C288.25 210.92 284.63 209.75 282.24 208.52C276.38 205.51 269.78 202.56 264.37 198.86C261.34 196.78 259.69 192.21 257.33 189.39C254.3 185.77 248.38 183.37 243.87 182.31C236.56 180.59 229.18 180.5 221.75 179.94C219.34 179.76 215.37 179.58 215.43 176.25C215.54 170.82 228.59 171.01 232.25 170.76C244.7 169.9 256.49 172.03 268.75 173.48C273.45 174.04 281.44 176.53 285.79 175.75C285.97 173.11 283.54 170.37 282.17 168.09C279.07 162.91 271.84 153.49 271.21 147.69C269.59 132.74 276.6 112.81 284.32 100.09C286.46 96.55 295.06 86.45 295.84 84.25C291.46 81.41 284.89 81.61 281.21 77.52C278.98 75.04 278.28 71.77 276.91 68.83C268.67 51.15 277.42 29.03 296.86 24.19C310.91 20.7 321.91 26.09 334.6 30.68C340.31 32.75 346.55 33.66 352.39 35.32C354.83 36.01 357.81 36.12 358.88 38.75ZM266.01 26.25C264.51 27.67 261.82 27.12 259.75 27.13C254.42 27.14 249.08 27.18 243.75 27.21C224.75 27.33 205.75 27.29 186.75 27.16C182.8 27.13 168.9 28.24 166.4 26.25C167.34 24.32 169.76 24.96 171.75 24.96C177.08 24.97 182.42 24.94 187.75 24.93C207.42 24.89 227.08 24.95 246.75 25C250 25 264.83 24.15 266.01 26.25ZM351.97 38.75C349.02 35.66 338.76 35.48 334.4 33.81C330.42 32.28 326.58 30.16 322.47 28.76C308.18 23.89 291.28 25.18 281.99 38.21C280.08 40.88 278.45 44.17 277.68 47.38C276.06 54.19 278.11 70.6 283.64 75.6C288.13 79.66 295.24 79.89 300.65 81.13C302.24 81.49 303.71 82.43 305.4 82.77C313.12 84.33 320.91 84.62 328.75 85.14C331.49 85.31 334.46 85.9 337.16 85.25C338.92 82.66 340.25 77.33 339.6 74.25C335.92 73.43 332.42 74.69 328.75 74.92C316.42 75.72 301.05 74.33 298.65 59.77C298.22 57.17 298.36 54.34 299 51.76C300.71 44.83 307.53 42.93 313.71 42.32C320.59 41.63 327.39 43.03 334.25 42.99C338.29 42.97 342.97 41.13 346.91 40.21C348.86 39.75 350.27 39.91 351.97 38.75ZM331.75 46.45C327.1 44.08 311.4 44.47 306.92 47.2C300.07 51.36 300.14 61.39 305.07 67.15C309.2 71.96 318.13 71.62 323.75 72.02C325.94 72.18 329.83 72.53 331.42 70.65C337.08 64 334.94 53.57 331.75 46.45ZM250.45 72.25C248.5 73.94 243.81 73 241.25 72.97C233.08 72.86 224.92 72.51 216.75 72.22C184.09 71.06 151.41 70.36 118.75 69.29C109.25 68.98 99.75 68.53 90.25 68.22C87.87 68.14 81.87 69.1 81 66.75C82.87 65.07 87.7 66 90.25 66.04C98.42 66.14 106.58 66.49 114.75 66.78C147.41 67.94 180.08 68.68 212.75 69.71C222.25 70.01 231.75 70.47 241.25 70.78C243.63 70.86 249.49 69.9 250.45 72.25ZM291.75 95.17C288.74 96.64 287.17 101.53 285.57 104.36C280.05 114.1 276.3 124.58 274.95 135.75C274.54 139.17 272.71 145.95 275.53 148.73C280.76 153.86 298.22 160.37 305.44 163.27C308.77 164.6 314.05 165.4 316.25 168.51C317.67 170.51 316.5 173.05 316.99 175.25C319.26 176.7 329.42 173.38 332.52 172.73C337.59 171.68 342.67 170.51 347.75 169.5C349.91 169.07 353.21 169.18 354.99 167.75C357.79 165.5 359.39 160.12 361.31 157.08C362.31 155.5 364.92 153.92 365.38 152.16C366.24 148.93 362.7 145.83 363.25 142.57C365.57 141.68 369.36 141.65 367.45 138.25C364.79 137.51 363.89 139.18 362.75 141.26C361.48 141.59 360.21 141.92 358.95 142.25C358.95 143.55 358.95 144.85 358.95 146.15C355.99 147.46 353.19 144.36 350.25 143.44C345.48 146.94 338.82 150.35 332.59 151.26C329.32 151.74 326.72 148.37 327.54 145.27C327.89 143.95 329.25 143.31 329.94 142.25C329.04 140.37 325.54 139.93 323.57 139.23C319.4 137.73 308.11 134.46 305.49 131.24C300.88 125.59 297.72 111.36 295.09 104.19C294.11 101.5 293.77 97.19 291.75 95.17ZM366.2 126.75C363.44 125.65 359.71 126.56 356.75 126.6C351.18 126.69 336.54 127.49 331.84 125.42C328.98 124.16 326.69 121.4 324.3 119.46C318.22 114.55 312.12 109.66 306.24 104.51C303.52 102.12 299.61 96.89 296 96.25C297.07 104.23 301.02 112.37 303.82 119.88C304.87 122.71 306.15 127.75 308.42 129.82C311.03 132.2 316.02 133.28 319.3 134.36C322.71 135.5 327.69 138.5 331.25 138.49C332.85 138.49 334.08 137.03 335.75 136.89C337.97 136.71 339.65 138.03 341.75 138.06C343.34 138.08 344.71 137.22 346.25 137.01C349.51 139.06 351.44 141.5 355.75 141.42C357.71 138.64 361.31 135.91 364.7 134.86C366.13 134.41 367.42 134.56 368.75 133.81C369.22 131.54 367.01 128.94 366.2 126.75ZM381.27 122.75C378.59 120.4 371.73 120.32 369.98 123.75C372.33 125.37 381.44 128.32 381.27 122.75ZM216.64 137.75C214.39 139.83 208.77 138.63 205.75 138.56C195.92 138.3 186.09 138.16 176.25 138.07C136.41 137.68 96.59 136.7 56.75 136.06C45.75 135.88 34.75 135.52 23.75 135.31C20.84 135.25 14.01 136.31 12.06 134.25C13.2 131.84 20.23 133.09 22.75 133.13C34.08 133.32 45.42 133.65 56.75 133.81C96.75 134.37 136.75 135.36 176.75 135.86C186.58 135.99 196.42 136.07 206.25 136.36C209.06 136.44 214.89 135.44 216.64 137.75ZM331.23 148.25C333.38 148.43 341.44 146.23 341.81 143.71C342.45 139.29 336.04 139.14 333.78 141.24C333.78 142.24 333.78 143.25 333.78 144.25C331.72 145.31 329.85 145.65 331.23 148.25ZM344.85 141.26C344.85 141.93 344.85 142.61 344.85 143.28C345.32 143.19 345.78 143.09 346.25 143C346.16 141.66 346.09 141.41 344.85 141.26ZM372.75 142.84C370.95 143.48 369.14 144.11 367.34 144.75C366.71 148.7 373.14 162.29 374.84 166.84C377.14 173 378.75 179.52 381.24 185.56C386.75 198.93 392.65 212.06 398.51 225.24C400.65 230.07 403.72 234.8 405.6 239.67C406.34 241.56 405.21 243.35 406.48 245.26C407.75 247.16 410.61 247.82 412.65 246.89C415.55 245.56 415.45 241.82 413.62 239.63C412.31 238.06 409.9 238.77 408.6 237.14C407.59 235.86 407.36 233.97 406.74 232.49C403.45 224.67 399.62 217.1 396.6 209.17C393.87 202.01 390.65 195.03 387.77 187.94C386.93 185.88 385.39 183.39 385.01 181.23C384.68 179.36 386.47 178.67 386.29 176.89C385.76 171.58 379.28 158.45 377.15 152.64C376.01 149.55 375.16 145.13 372.75 142.84ZM278.25 154.66C278.42 157.91 282.13 162.15 283.84 164.89C285.81 168.03 287.69 173.83 290.66 176.09C292.29 177.33 295.31 177 297.25 177.1C302.9 177.41 307.49 178.53 313.1 176.75C313.85 175.25 314.64 171.83 313.4 170.39C311.44 168.12 306.5 167.07 303.79 165.95C298.2 163.62 292.65 161.11 287.13 158.63C284.33 157.37 281.29 154.9 278.25 154.66ZM366.75 156.1C363.99 157.54 360.8 163.27 359.99 166.25C364.51 168.92 369.03 171.58 373.54 174.25C374.1 172.18 368.55 157.39 366.75 156.1ZM375.86 180.25C374.83 178.75 362.41 170.35 360.72 170.19C357.92 169.92 354 171.79 351.23 172.39C345.43 173.66 339.58 174.79 333.76 176.02C328.62 177.1 320.74 177.29 316.41 180.25C314.58 188 315.39 196.82 314.73 204.75C314.29 210.02 313.34 215.83 314.25 221.11C318.91 224.19 327.34 220.38 331.34 227.89C332.11 229.32 332.52 231.06 331.83 232.62C328.93 239.2 312.41 233.32 310.78 227.43C309.56 223.01 311.08 216.74 311.37 212.24C311.76 206.11 311.34 199.92 312.21 193.79C312.65 190.69 313.9 183.4 312.75 180.77C306.47 180.77 300.19 180.77 293.92 180.77C295.04 186.02 301.38 190 301.11 195.75C300.85 201.5 294.91 206.12 294.7 211.75C295.56 212.85 296.87 213.44 297.64 214.62C299.9 218.08 300.6 222.5 301.84 226.35C302.68 228.93 302.79 233.58 304.66 235.6C306.39 237.45 311.01 237.35 313.34 237.81C320.49 239.25 327.78 239.8 334.91 241.27C337.74 241.86 341.76 243.1 344.44 241.75C344.38 237.51 338.2 237.48 335.25 235.81C334.6 233.3 342.82 222.69 344.84 220.11C352.1 210.87 358.16 200.62 366 191.74C368.89 188.46 375.08 184.78 375.86 180.25ZM291.25 209.54C293.34 207.3 298.38 197.28 297.83 194.34C297.28 191.35 294.16 187.74 292.52 185.2C291.47 183.57 290.61 180.89 288.87 179.87C285.26 177.75 278.94 178.48 274.87 177.77C264.07 175.87 250.62 172.74 239.75 173.55C236.16 173.81 220.87 173.22 219.25 176.28C222.34 178.22 228.52 177.03 232.25 177.35C238.59 177.9 246.55 179.21 252.42 181.81C259.99 185.17 261.45 191.94 266.96 196.79C270.86 200.21 276.95 201.89 281.54 204.23C284.64 205.81 287.89 208.86 291.25 209.54ZM434.75 189.5C433.57 186.81 428.15 184.86 425.54 183.75C417.11 180.13 408.21 179.81 399.25 180.75C396.34 181.06 391.62 181.41 389.35 183.25C390.07 184.92 390.78 186.58 391.5 188.25C393.86 188.12 395.94 186.89 398.26 186.51C403.5 185.64 408.93 185.12 414.25 185.48C419.02 185.8 423.67 186.7 428.29 187.9C430.5 188.47 432.47 189.56 434.75 189.5ZM377.5 186.25C371.54 187.9 361.04 202.99 356.99 208.2C355.52 210.09 352.08 213.75 351.75 215.85C353.63 217.68 356.18 218.03 358.75 217.76C362.82 213.17 365.2 206.66 369.49 201.74C372.6 198.17 377.36 195.93 380.25 192.35C379.33 190.31 378.42 188.28 377.5 186.25ZM195.75 204.79C192.69 206.12 188.07 205.22 184.75 205.18C176.42 205.09 168.08 205.01 159.75 204.95C129.41 204.73 99.08 203.66 68.75 203.17C59.25 203.02 49.75 202.92 40.25 202.67C37.44 202.59 32.07 203.5 30.26 201.25C32.42 199.43 36.48 200.38 39.25 200.44C47.25 200.61 55.25 200.78 63.25 200.88C95.09 201.24 126.92 202.22 158.75 202.68C168.08 202.81 177.42 202.96 186.75 203.06C189.19 203.09 195.11 201.98 195.75 204.79ZM390.5 215.75C387.91 216.02 386.41 218.74 384.77 220.52C378.76 227.08 376.06 237.53 377.04 246.25C379.74 270.32 403.07 281.45 424.43 271.19C445.03 261.29 451.22 231.98 434.04 215.71C427.53 209.54 419.09 206.92 410.25 207.07C407.46 207.12 402.23 207.54 400.31 209.75C400.43 212.42 402.74 215.87 403.88 218.36C406.1 223.19 407.37 229.94 410.59 234.15C412.25 236.32 415.46 235.87 417.07 238.69C419.25 242.49 418.06 247.73 414.13 249.88C410.38 251.93 405.25 250.18 403.36 246.37C402.45 244.51 402.88 242.72 402.38 240.79C401.46 237.23 392.66 218.4 390.5 215.75ZM277.25 229.92C277.96 226.82 275.1 223.75 273.33 221.4C267.77 214.05 259.64 209.38 250.46 208.27C227.42 205.47 211.08 227.88 215.11 249.22C219.2 270.85 245.29 280.17 263.81 271.08C271.67 267.21 283.9 251.2 280 242.25C274.81 242.48 260.56 244.84 255.62 246.31C252.48 247.25 251.56 250.32 247.73 250.42C243.34 250.53 240.14 247.53 239.39 243.25C238.56 238.53 241.88 235.22 246.25 234.51C248.36 234.17 249.79 235.35 251.75 235.36C253.93 235.37 275.13 230.83 277.25 229.92ZM298.14 225.75C298.43 222.72 296.09 216.3 293 215.25C290.33 217.41 286.75 224.36 286.59 227.75C289.23 228.6 295.97 227.43 298.14 225.75ZM328.83 230.75C328.55 225.33 317.8 223.65 314.02 225.75C314.49 230.49 325.66 234.57 328.83 230.75ZM299.25 229.89C295.79 229.02 291.24 230.97 287.75 231.56C280.15 232.84 272.5 234.07 264.98 235.76C261.58 236.53 257.21 236.48 254.17 238.25C254.55 239.75 254.92 241.25 255.3 242.75C259.23 243.47 263.84 241.68 267.76 241.09C276.59 239.76 292.42 237.82 300.33 234.75C299.97 233.13 299.61 231.51 299.25 229.89ZM246.48 237.76C240.18 238.69 242.67 248.82 249.16 246.86C253.99 245.4 251.41 237.03 246.48 237.76ZM200.21 257.25C198.9 259.12 196.31 258.35 194.16 258.33C188.02 258.3 181.88 258.32 175.75 258.32C150.91 258.35 126.09 258.32 101.25 258.15C94.42 258.1 87.58 258.06 80.75 258.04C78.48 258.03 74.88 258.86 73.77 256.75C75.61 255.31 78.86 255.93 81.25 255.93C87.42 255.93 93.58 255.92 99.75 255.91C123.75 255.88 147.75 256.02 171.75 256.06C178.5 256.07 185.25 256.14 192 256.2C194.62 256.22 198.2 255.5 200.21 257.25Z" fill="#ffffff" fill-rule="evenodd" stroke="#ffffff" stroke-width="0.25" stroke-linejoin="round"/>
</svg>