<?xml version="1.0" encoding="UTF-8"?>
<svg xmlns="http://www.w3.org/2000/svg" viewBox="0 0 304 385" width="304" height="385">
<path d="M170.88 3.25C171.33 5.35 171.79 7.44 172.25 9.54C175.34 10.41 178.58 9.25 181.37 11.4C185.88 14.89 183.61 21.51 181.43 25.68C179.17 30 174.42 33.77 170.12 35.85C168.27 36.75 166.13 37 164.38 38.14C160.85 40.46 158.18 43.47 154.25 45.35C153.83 47.32 153.77 49.24 153.78 51.25C153.78 53.33 153.52 56.04 154.26 58.02C156.8 64.85 168.8 60.28 172.83 65.4C175.4 68.66 171.92 72.06 173.85 75.37C178.31 83.01 182.54 90.45 186.28 98.49C188.07 102.34 190.63 106.86 190.51 111.25C190.4 114.99 187.85 118.26 186.22 121.44C181.11 131.42 172.91 140.03 164.43 147.19C162.24 149.04 152.55 153.56 151.92 155.27C150.5 159.13 151.65 168.36 151.68 172.75C151.72 179.47 150.84 187.12 152.1 193.73C153.05 198.73 155.32 203.64 156.72 208.54C158.68 215.41 160.05 222.53 161.74 229.46C164.58 241.08 163.44 253.75 166.49 265.25C172.7 266.68 181.77 265.51 177.86 275.75C184.34 277.59 198.53 274.2 203.55 277.22C207.23 279.43 206.04 285.7 206.06 289.25C206.1 299.35 204.58 311.79 206.25 321.59C212.12 323.36 222.38 321.91 228.75 321.9C244.09 321.9 259.42 321.98 274.75 321.99C279.73 321.99 295.66 320.19 298.62 324.11C300.67 326.83 299.99 331.09 300.01 334.25C300.05 342.25 299.97 350.25 300.01 358.25C300.04 363 301.14 378.87 299.43 382.25C296.02 384.31 283.71 383.04 279.25 383.03C262.08 382.96 244.92 383.01 227.75 383.03C174.09 383.07 120.41 383.3 66.75 382.99C51.75 382.9 36.75 383.02 21.75 382.99C17.27 382.98 7.25 384.28 3.41 382.78C1.16 381.89 2.01 369.42 2.03 366.75C2.11 353.58 2.02 340.42 2.02 327.25C2.02 322.25 0.78 315.4 6.64 313.37C12.02 311.5 23.24 312.97 29.25 312.96C43.42 312.94 57.58 312.9 71.75 312.95C78.76 312.98 86.89 314.07 93.76 312.75C95.26 305.08 94.09 296.09 94.13 288.25C94.15 284.85 93.5 280.22 96.54 277.78C98.69 276.05 102.19 276.39 104.75 276.37C110.9 276.34 117.12 276.55 123.25 276C123.01 275 122.26 274.26 122.07 273.23C120.76 265.85 130.13 266.12 134.41 265.25C135.69 260.89 135.67 255.91 136.24 251.41C137.28 243.07 138.36 234.49 140.12 226.25C142.47 215.22 146.59 204.43 148.66 193.34C149.92 186.65 148.65 178.57 148.64 171.75C148.63 166.93 150.01 159.85 148.51 155.28C148.02 153.79 137.48 148.54 135.37 146.87C126.34 139.75 117.51 129.94 112.78 119.43C111.48 116.56 109.61 114.61 109.52 111.25C109.27 101.6 120.95 83.71 125.9 75.16C127.9 71.68 124.1 68.41 127.28 65.04C132.3 59.72 143.38 65.98 145.64 56.31C146.28 53.61 146.89 47.89 145.3 45.42C144.01 43.41 139.66 42.24 137.78 40.47C135.06 37.89 132.7 37.42 129.36 35.88C123.52 33.19 119.14 28.51 116.6 22.66C114.68 18.22 114.71 12.22 120.05 10.3C122.15 9.55 124.57 10.01 126.75 9.71C127.82 7.94 126.95 4.38 129.06 3.31C131.78 1.92 137.22 2.93 140.25 2.93C148.74 2.92 163.07 1.73 170.88 3.25ZM168.75 5.92C156.25 5.92 143.74 5.92 131.24 5.92C128.36 14.22 132.13 29.72 137.95 36.31C140.74 39.47 147.81 42.25 148.37 45.29C149.23 49.92 149.68 56.98 146.73 60.98C144 64.68 136.96 63.39 137.75 68.82C141.19 70.37 158.51 70.18 162.25 68.97C163.28 63.36 154.88 64.57 152.35 60.41C150.22 56.9 150.62 50.63 151.13 46.77C151.86 41.31 158.44 40.27 161.93 36.16C168.31 28.67 170.74 15.37 168.75 5.92ZM127.06 13.25C109.81 9.92 122.52 32.38 131.78 33.25C131.42 29.31 129.14 25.07 128.21 21.14C127.58 18.5 128.19 15.73 127.06 13.25ZM172.25 13.29C171.17 16.56 171.56 20.23 170.79 23.61C170.05 26.86 168.11 30.26 167.75 33.46C176.61 30.6 189.93 10.24 172.25 13.29ZM170.47 70.75C172.57 67.42 169.02 64.8 165.75 65.35C164.09 68.69 167.08 71.75 170.47 70.75ZM133.89 65.75C130.66 64.99 126.84 67.81 129.75 70.92C133.08 71.35 134.94 68.94 133.89 65.75ZM168 139.25C171.4 138.19 174.71 132.85 176.86 130.12C180.13 125.97 187.25 116.52 187.46 111.25C187.71 105.19 180.25 92.59 177.24 87.03C175.81 84.38 171.78 75.63 169.54 74.22C163.05 70.14 152.19 72.19 144.75 72.18C141.92 72.18 138.11 71.47 135.39 72.22C127.39 74.42 124.58 83.31 120.83 90.11C117.56 96.06 112.43 104.22 112.69 111.22C112.84 115.33 115.75 118.67 117.7 122.04C122.9 130.99 137.6 148.31 147.95 150.75C148.86 149.25 149.29 145.71 148.11 144.13C146.85 142.43 143.33 141.7 141.51 140.73C136.35 137.97 131.11 134.83 126.35 131.43C120.05 126.93 121.38 110.73 124.25 104.47C128.94 94.27 140.03 88.3 151.32 91.34C157.82 93.09 163.55 96.84 169.54 99.7C172.69 101.2 182.61 104.21 184.02 106.75C183 110.99 172.16 110.55 168.55 112.75C168.31 115.06 168.76 117.39 168.56 119.75C168.21 123.8 166.57 127.4 165.45 131.25C168.26 133.92 168.56 135.36 168 139.25ZM177.75 107C177.21 105.47 168.51 102.4 166.45 101.3C154.4 94.9 135.27 86.94 127.48 104.25C124.58 110.7 123.07 121.75 127.16 128.1C128.6 130.33 132.13 131.55 134.27 132.98C141.5 137.83 151.87 144.34 160.75 144.59C163.16 142.44 164.95 138.88 165.57 135.75C163.1 132.29 158.41 135.34 154.75 134.99C144.8 134.03 134.87 126.87 137.24 115.96C139.23 106.77 152.65 107.94 159.73 109.11C161.61 109.42 163.28 110.26 165.25 110.2C169.08 110.09 174.15 108.36 177.75 107ZM164.98 113.25C158.52 111.27 141.38 108.34 139.75 117.5C139.41 119.42 139.32 121.81 140.16 123.62C142.64 128.97 156.38 134.66 161.46 131.21C165.14 128.71 166.85 116.94 164.98 113.25ZM151.89 145.86C151.89 147.51 151.89 149.16 151.89 150.81C153.75 149.79 155.62 148.77 157.48 147.75C155.62 147.12 153.75 146.49 151.89 145.86ZM150.25 199.55C144.08 214.49 141.2 235.99 139.27 252.01C138.69 256.84 137.54 261.87 137.59 266.75C137.62 268.81 138.83 270.63 138.05 272.74C137.58 274.02 136.36 274.72 135.56 275.75C138.21 276.77 141.32 276.16 144.14 276.25C149.97 276.43 160.09 277.49 165.47 275.75C164.73 274.57 163.31 273.65 162.96 272.24C162.45 270.13 163.93 268.72 163.88 266.76C163.75 261.87 162.43 256.68 162.02 251.75C161.04 240.17 158.58 228.6 155.81 217.37C154.93 213.82 152.65 201.31 150.25 199.55ZM135.52 271.25C134.01 266.05 123.61 268.32 125.54 273.25C128.64 275.35 133.52 274.31 135.52 271.25ZM176.25 271.38C174.22 268.25 168.26 266.76 165.94 270.25C166.33 274.79 175.88 276.22 176.25 271.38ZM202.78 379.95C204.73 373.46 203.31 362.74 203.31 355.75C203.31 338.57 203.31 321.42 203.31 304.25C203.31 298.42 203.48 292.57 203.31 286.75C203.25 284.84 203.82 281.8 202.49 280.26C201.06 278.6 198.18 279.15 196.25 279.14C190.75 279.12 185.25 279.17 179.75 279.15C159.42 279.09 139.08 279.02 118.75 279.15C114.93 279.18 100.42 277.94 98.24 280.49C96.64 282.38 97.14 285.47 97.14 287.75C97.12 293.42 97.13 299.08 97.15 304.75C97.23 321.91 97.19 339.09 97.14 356.25C97.12 362.8 95.68 374 97.58 379.95C132.65 379.95 167.71 379.95 202.78 379.95ZM94.09 316.28C87.05 315.27 79.37 316.1 72.25 316.09C57.42 316.07 42.58 316.08 27.75 316.07C22.58 316.07 17.42 316.1 12.25 316.07C10.21 316.06 7.5 315.55 5.92 317.17C4.01 319.15 4.97 330.14 4.98 333.25C4.99 343.42 5.01 353.58 5.01 363.75C5.01 369.09 4.55 374.66 5.24 379.95C34.85 379.95 64.47 379.95 94.09 379.95C94.09 358.73 94.09 337.5 94.09 316.28ZM206.04 325.35C206.04 343.55 206.04 361.75 206.04 379.95C236.28 379.95 266.52 379.95 296.76 379.95C297.76 375.36 297.15 369.97 297.15 365.25C297.15 356.75 297.17 348.25 297.15 339.75C297.15 337.24 297.82 327.85 296.53 326.23C295.26 324.63 292.51 324.99 290.75 324.99C285.42 324.97 280.08 324.99 274.75 324.99C259.08 324.99 243.42 324.91 227.75 324.98C220.76 325.01 212.88 323.94 206.04 325.35Z" fill="#ffffff" fill-rule="evenodd" stroke="#ffffff" stroke-width="0.25" stroke-linejoin="round"/>
</svg>