<?xml version="1.0" encoding="UTF-8"?>
<svg xmlns="http://www.w3.org/2000/svg" viewBox="0 0 199 414" width="199" height="414">
<path d="M72.75 40.09C69.54 39.85 69.68 34.57 68.84 31.87C66.51 24.44 63.32 17.32 60.72 10C59.84 7.53 56.67 3.37 58.25 0.97C61.34 1.23 62.31 6.33 63.29 8.97C65.94 16.17 68.71 23.28 71.3 30.47C72.21 33 74.29 37.66 72.75 40.09ZM100.75 2.58C102.85 3.73 102.95 7.55 102.99 9.75C103.1 16.41 102.84 22.69 101.97 29.25C101.65 31.71 101.9 36.06 99.75 37.31C97.23 35.76 98.76 32.79 98.95 30.25C99.47 23.51 100.24 17.1 100.07 10.25C100 7.72 98.04 3.85 100.75 2.58ZM146.75 3.31C148.32 5.65 145.67 8.96 144.36 11.1C140.54 17.32 136.47 23.45 132.06 29.31C130.53 31.34 127.97 36.05 125.32 34.25C125.09 31.71 128.5 29.58 129.85 27.62C133.87 21.8 138.04 16.02 141.73 10C142.9 8.11 144.22 3.11 146.75 3.31ZM44.75 45.43C42.49 46.95 41.28 44.97 40.3 42.96C37.21 36.61 33.11 31.51 28.77 25.95C27.23 23.97 24.24 21.91 25.36 19.25C27.83 19.14 30.12 22.79 31.47 24.79C34.55 29.35 44.51 40.3 44.75 45.43ZM180.76 27.25C181.38 30.46 177.6 32.44 175.37 34.14C171.18 37.33 167.23 41.35 162.44 43.68C160.9 44.43 159.15 44.67 157.65 45.41C155.12 46.64 153.31 50.66 150.25 50.16C149.36 47.57 152.94 44.89 155.16 43.41C157.08 42.13 159.58 41.82 161.64 40.87C166.08 38.83 170.16 34.72 173.97 31.72C176.11 30.03 178.05 26.81 180.76 27.25ZM145.49 105.25C146.06 112.08 148.48 119.07 149.98 125.76C151.61 133.02 152.53 140.41 154.16 147.67C155.43 153.3 158.64 159.22 155.66 164.9C150.15 175.42 130.47 186.86 119.57 190.77C114.48 192.59 109.56 194.76 104.55 196.76C103.1 197.34 100.6 198.01 99.81 199.57C98.67 201.84 99.51 210.4 99.58 213.25C99.8 223.24 99.47 233.26 99.48 243.25C99.49 251.27 98.6 259.78 99.53 267.75C99.84 270.4 101.09 272.95 101.73 275.51C103.61 283.04 105.19 290.75 106.93 298.27C110.99 315.87 113.65 333.87 117.75 351.48C119.82 360.42 121.69 369.67 123.09 378.75C123.76 383.17 123.96 389.64 126.25 393.5C130.32 392.89 133.94 391.8 138.17 392.21C143.28 392.7 151.11 396.96 149.87 403.21C149.17 406.76 145.31 407.7 142.35 408.18C136.74 409.09 125.49 409.57 122.01 403.71C120.24 400.73 122.78 398.47 122.81 395.74C122.85 391.31 120.88 385.68 119.98 381.26C114.83 355.71 109.55 330.13 104.21 304.61C102.74 297.59 101.4 290.6 99.65 283.64C99.06 281.29 99.24 278.65 97.75 276.66C96.36 278.23 96.08 282.57 95.53 284.77C93.76 291.9 92.8 299.15 91 306.24C85.01 329.84 80.44 354.24 75.89 378.25C74.82 383.87 72.72 390.05 72.46 395.75C72.33 398.79 74.67 400.53 72.91 403.67C69.57 409.62 58.22 409.18 52.61 408.22C49.84 407.74 46.29 406.96 45.6 403.71C43.59 394.13 56.37 391.58 63.2 392.2C65.2 392.38 67.05 393.51 69 393.75C71.24 389.31 71.48 382.76 72.2 377.86C73.62 368.13 76.27 358.45 78.08 348.77C81.68 329.55 85.97 310.25 90.31 291.14C92.02 283.65 94.95 275.8 95.91 268.24C96.93 260.18 95.98 251.38 95.99 243.25C96 232.91 96.13 222.57 96.21 212.23C96.24 208.29 97.33 203.07 95.75 199.41C90.29 197.43 83.46 196.11 77.71 195.15C76.35 194.93 74.83 195.31 73.54 194.7C72.45 194.19 71.93 192.95 71.03 192.23C68.64 190.34 65.98 189.11 63.64 187.07C51.97 176.95 40.59 166.18 41.92 149.25C42.23 145.24 43.87 140.64 44.97 136.73C47.5 127.71 49.55 118.61 52.35 109.64C54.07 104.12 50.37 103.79 49.65 98.74C48.36 89.64 54.69 85.6 61.25 81.56C62.26 75.67 61.51 68.77 61.52 62.75C61.52 60.79 60.8 57 62.17 55.41C63.96 53.34 74.35 54.37 77.25 54.36C91.91 54.3 106.59 54 121.25 54.29C124.05 54.35 136.02 53.48 137.59 55.17C139.07 56.77 138.49 60.27 138.51 62.25C138.57 68.06 137.61 74.46 138.23 80.19C138.49 82.62 143.77 84.43 145.51 86.24C150.64 91.62 150.26 100.08 145.49 105.25ZM130.91 58.09C110.26 58.09 89.62 58.09 68.97 58.09C70.12 60.55 72.63 61.86 74.73 63.51C80.33 67.92 86.3 72.41 91.57 77.18C93.65 79.06 97.8 82.29 100.72 81.86C105.96 81.1 114.8 71.78 119.23 68.47C122.64 65.92 129.54 62.15 130.91 58.09ZM134.97 61.25C132.33 61.89 130.66 64.14 128.56 65.8C122.1 70.94 115.67 76.47 108.81 81.05C106.04 82.9 103.8 85.19 100.23 85.33C95.7 85.51 92.34 81.76 88.91 79.35C81.75 74.32 72.72 65.07 65.65 61.25C64.05 63.92 64.5 78.26 65.25 81.72C70.63 83.55 75.24 87.4 73.72 93.93C73.08 96.69 71.08 99.13 70.56 101.75C74.91 102.58 79.82 101.97 84.25 101.97C93.92 101.97 103.58 101.97 113.25 101.98C117.38 101.98 125.34 103.47 128.75 101.29C126.06 96.18 122.37 89.18 127.92 84.18C129.99 82.32 132.58 81.97 134.97 80.75C134.97 74.25 134.97 67.75 134.97 61.25ZM43.15 67.75C42.43 69.19 41.46 69.31 39.81 68.86C38.51 68.5 37.5 67.38 36.23 66.99C33.59 66.16 23.46 65.83 23.81 62.25C25.68 61.01 27.33 62.36 29.34 62.82C33.27 63.73 41.09 63.67 43.15 67.75ZM173.75 65.41C171.86 66.88 160.5 71 157.65 71.84C155.92 72.35 153.91 73.27 152.4 72.25C151.95 69.83 154.91 69.51 156.75 69.03C159.57 68.29 173.61 60.01 173.75 65.41ZM62.39 85.23C54.39 86.29 47.72 101.67 58.07 103.71C68.93 105.86 76.65 83.33 62.39 85.23ZM132.87 85.21C122.33 87.57 133.14 107.97 142.91 102.66C151.55 97.97 142.04 83.16 132.87 85.21ZM141.8 107.25C127.48 103.78 111.56 105.47 96.75 105.46C83.6 105.45 69.44 103.98 56.75 107.34C53.24 113.39 52.52 122.15 50.71 128.91C45.46 148.56 40.05 159.85 55.99 176.27C58.57 178.92 66.49 187.7 69.9 187.75C69.07 185.32 65.15 178.28 68.54 176.29C69.98 175.45 71.77 175.74 73.25 174.78C72.27 169.39 69.78 166.01 69.56 159.75C69.44 156.2 71.7 151.63 70.75 148.33C66.41 147.67 54.25 147.84 51.16 145.25C51.02 144.39 50.73 143.78 51.21 142.95C51.87 141.83 54.36 141.26 55.47 140.71C59.85 138.53 64.47 136.82 68.85 134.59C72.98 132.49 76.51 129.49 80.59 127.34C95.91 119.27 115.9 116.61 128.9 130.36C137.19 139.12 138.55 151.71 136.27 163.03C135.57 166.53 135.2 172.1 132.45 174.71C126.09 180.76 113.68 184.51 105.62 187.84C103.7 188.63 101.66 188.72 99.84 189.75C99.84 191.08 99.84 192.42 99.84 193.75C104.62 194.37 110.5 190.89 114.86 189.19C122.53 186.18 130.05 183.16 137.07 178.76C138.9 177.61 140.14 175.46 142.02 174.29C146.4 171.54 152.18 167.38 153.79 162.11C155.41 156.81 151.61 151.58 150.33 146.82C147.64 136.81 146.74 126.21 144.02 116.24C143.2 113.22 143.23 110.05 141.8 107.25ZM71.06 179.25C71.24 181.49 73.36 189.72 75.39 190.82C79.55 193.08 94.28 187.42 99.06 186.28C107.23 184.33 115.16 180.21 122.64 176.38C124.83 175.26 127.93 174.27 129.58 172.35C133.75 167.49 134.67 153.72 133.46 147.76C129.87 129.98 113.6 121.24 96.25 124.95C87.78 126.77 80.58 131.66 73.4 136.18C69.37 138.72 62.61 139.43 59.56 143.25C61.65 144.51 64.12 143.91 66.44 144.27C77.8 146.05 88.91 141.61 100.34 142.79C107.4 143.52 113.34 145.06 115.71 152.55C121.95 172.19 96.73 178.01 82.75 178.56C78.81 178.72 74.78 177.43 71.06 179.25ZM91.94 146.25C89.41 146.45 76.75 147.26 75.37 148.59C71.22 152.58 73.11 164.58 74.99 169.26C75.61 170.83 76.68 174.07 78.4 174.79C80.59 175.71 84.26 174.99 86.55 174.75C93.67 174 104.76 172.38 109.72 166.47C116.38 158.52 112.19 147.43 102.07 146.24C98.78 145.86 95.23 145.98 91.94 146.25ZM96.15 191.25C92.51 191.92 88.86 192.58 85.21 193.25C86.68 195.03 91.83 195.8 94.25 195.87C95.77 194.45 96.64 193.41 96.15 191.25ZM49.25 403.09C52.23 406.15 70.62 406.32 70.07 400.25C69.85 397.87 66.23 396.43 64.25 396.06C59.43 395.16 47.93 395.62 49.25 403.09ZM133.84 395.73C131.19 395.81 122.33 397.66 125.46 402.31C127.63 405.54 144.08 406.29 145.94 403.17C149.34 397.51 136.75 395.64 133.84 395.73Z" fill="#141414" fill-rule="evenodd" stroke="#141414" stroke-width="0.25" stroke-linejoin="round"/>
</svg>