<?xml version="1.0" encoding="UTF-8"?>
<svg xmlns="http://www.w3.org/2000/svg" viewBox="0 0 75 71" width="75" height="71">
<path d="M53.01 70.92C43 70.92 33 70.92 22.99 70.92C22.86 68.27 21.49 65.38 23.2 62.93C24.89 60.5 29.01 61.03 31.33 59.58C34.94 57.31 34.55 49.17 33.68 45.67C32.99 42.87 27.9 41.48 25.78 39.47C23.05 36.9 20.69 36.43 17.35 34.89C11.52 32.19 7.13 27.52 4.59 21.67C2.67 17.23 2.7 11.22 8.04 9.3C10.15 8.54 12.57 9.01 14.75 8.69C15.81 6.93 14.94 3.38 17.05 2.3C19.77 0.91 25.21 1.92 28.25 1.92C36.69 1.91 51.16 0.72 58.89 2.25C59.34 4.34 59.8 6.43 60.25 8.52C63.33 9.42 66.59 8.24 69.37 10.39C73.89 13.89 71.62 20.51 69.44 24.69C67.18 29.01 62.43 32.77 58.12 34.86C56.27 35.76 54.14 36.01 52.39 37.15C48.85 39.46 46.16 42.47 42.25 44.37C41.41 48.32 40.36 56.83 44.27 59.5C46.61 61.09 50.18 61.22 52.75 62.62C53.56 65.49 53.74 68.15 53.01 70.92ZM56.75 4.93C44.25 4.93 31.75 4.93 19.26 4.93C16.35 13.2 20.15 28.73 25.95 35.3C28.74 38.46 35.81 41.24 36.38 44.28C37.24 48.91 37.7 55.99 34.74 59.99C32.01 63.68 25.01 62.4 25.75 67.8C29.16 69.35 46.55 69.17 50.25 67.95C51.24 62.36 42.87 63.58 40.34 59.42C38.21 55.9 38.61 49.64 39.12 45.76C39.85 40.3 46.44 39.27 49.93 35.16C56.3 27.65 58.71 14.4 56.75 4.93ZM15.04 12.25C-2.16 8.99 10.5 31.25 19.76 32.25C19.43 28.33 17.13 24.07 16.2 20.15C15.58 17.51 16.19 14.73 15.04 12.25ZM55.75 32.43C61.01 30.84 65.65 26.04 67.75 21.03C70.5 14.47 67.25 10.88 60.32 12.25C59.29 15.57 59.57 19.19 58.8 22.61C58.05 25.88 56.18 29.21 55.75 32.43Z" fill="#191919" fill-rule="evenodd" stroke="#191919" stroke-width="0.25" stroke-linejoin="round"/>
</svg>