<?xml version="1.0" encoding="UTF-8"?>
<svg xmlns="http://www.w3.org/2000/svg" viewBox="0 0 294 289" width="294" height="289">
<path d="M122.84 30.75C121.42 33.65 118.03 33.33 115.19 33.82C110.73 34.59 100.24 35.63 96.75 37.71C96.42 40.69 97.29 43.71 96.88 46.73C95.96 53.57 93.23 59.31 91.46 65.75C93.55 67.77 96.25 68.57 96.78 71.89C97.45 76.05 88.54 90.13 84.24 90.35C77.01 90.71 68.37 85.6 61.91 82.79C59.5 81.74 57.35 79.99 54.75 79.43C53.79 81.43 53.28 85.51 54.16 87.63C55.16 90.07 64.23 96.07 66.68 98.05C73.16 103.28 86.67 115.56 93.53 118.71C98.02 120.77 112.95 121.53 118.25 121.45C120.04 119.54 120.57 116.7 123 115.27C127.21 112.77 131.57 113.72 135.25 112.06C136.8 109.36 136.49 100.57 139.54 99.3C141.5 98.48 149.94 101.24 152.32 101.86C160.79 104.07 169.62 105.88 178.21 107.65C181.52 108.34 187.17 108.57 189.75 110.8C190.82 114.93 188.15 121.63 187.1 125.77C186.17 129.45 184.37 143.11 181.75 145.01C179.6 146.57 168.02 143 165.05 142.25C157.22 140.26 149.12 138.91 141.25 137.04C138.44 136.37 135.39 136.25 132.72 135.12C131.62 134.65 131.16 133.51 130.17 133.1C128.4 132.37 126.21 132.67 124.35 131.88C121.37 130.62 119.8 125.81 118.07 125.26C110.46 122.87 96.52 125.98 89.75 121C82.22 115.45 74.62 109.84 67.45 103.79C63.44 100.41 58.98 95.65 54.25 93.41C52.18 97.57 53.13 115.19 53.12 120.75C53.11 129.76 53.23 138.74 53.55 147.75C53.65 150.64 53.19 153.68 53.74 156.54C54.58 160.97 56.55 165.53 58.01 169.77C61.01 178.49 63.24 187.43 66.13 196.16C67.74 200.98 70.25 206.18 70.87 211.26C72.41 224.01 73.23 236.93 73.94 249.75C74.25 255.46 73.35 263.46 75.54 268.75C82.44 270.24 90.87 266.92 96.13 274.12C97.17 275.54 97.78 277.14 97.22 278.93C96.2 282.17 92.1 282.82 89.25 283.09C84.19 283.56 71.68 284.72 69.29 278.48C68.08 275.34 71.03 273.55 71.26 270.7C71.77 264.49 70.92 257.46 70.42 251.25C69.42 238.87 69.82 223.6 67.16 211.71C65.51 204.31 62.6 197.08 60.39 189.81C58.7 184.26 56.65 178.77 54.95 173.25C54.37 171.35 53.77 167.21 52.25 166.39C50.27 172.45 50 179.43 48.87 185.75C47.17 195.19 45.61 204.88 43.6 214.26C41.26 225.16 38.67 235.93 36.7 246.91C35.45 253.86 32.8 260.7 32.08 267.75C33.8 269.34 49.63 273.26 43.29 280.54C39.81 284.54 26.18 284.12 21.53 282.73C18.25 281.75 15.09 279.69 16.04 275.77C17.58 269.48 27.03 270.55 28.36 267.15C30.67 261.23 30.79 254.49 32.18 248.34C33.95 240.53 35.65 232.7 37.19 224.84C40.26 209.16 43.83 193.62 46.09 177.77C47.01 171.35 49.23 165.17 49.87 158.74C50.67 150.84 49.58 142.66 49.5 134.75C49.4 124.73 49.91 114.75 49.88 104.75C49.87 101.86 50.84 96.17 49.25 93.93C36.72 104.87 28.1 120.74 23.8 136.61C22.33 142.07 19.11 151.26 20.28 156.75C21.75 157.76 23.36 158.31 24.54 159.71C28.39 164.24 29.36 173.56 25.74 178.49C21.71 183.99 12.22 183.05 9.19 177.08C6.72 172.21 7.67 163.74 11.24 159.49C12.52 157.98 15.32 157.48 16 155.72C17.53 151.8 17.2 147.33 18.07 143.27C19.95 134.49 22.54 124.73 27.17 116.91C30.97 110.49 34.68 103.98 39.45 98.21C41.63 95.58 49.2 89.86 50 87.23C50.67 85.05 51.51 78.49 50.17 76.6C49.55 75.72 47.9 75.31 46.98 74.75C41.96 71.75 30.74 66.21 27.42 61.82C25.77 59.65 25.41 55.86 24.99 53.25C23.5 43.96 22.97 33.57 27.01 24.77C35.27 6.75 55.52 0.07 74.01 5.25C82.91 7.75 90.05 13.7 98.26 17.51C104.14 20.24 109.9 23.29 115.77 25.97C118.4 27.17 122.2 27.45 122.84 30.75ZM114.45 29.75C111.63 26.97 100.63 23 96.38 20.86C88.93 17.09 81.78 11.4 73.66 9.15C59.03 5.09 39.74 7.89 32.3 23.05C27.09 33.65 26.77 44.27 29.67 55.63C29.94 56.7 29.83 57.99 30.29 58.98C31.51 61.62 39.29 65.67 41.92 67.33C51.6 73.4 62.45 79.97 73.37 83.35C76.85 84.43 80.59 86.55 84.25 86.56C87.6 83.38 92.52 76.91 92.94 72.25C89.27 67.1 81.49 71.24 76.25 70.88C62.41 69.94 43.18 58.78 48.21 42.39C53.64 24.69 78.42 33.38 91.25 34.11C95.24 34.33 99.51 33.06 103.36 32.19C106.49 31.47 112.23 32.17 114.45 29.75ZM92.57 38.75C89.78 37.22 86.03 37.23 82.93 36.77C73.56 35.38 55.14 31.49 51.73 43.97C51.02 46.57 50.91 49.49 51.7 52.09C54.93 62.73 76.9 70.1 86.34 65.64C88.13 64.8 88.51 62.18 89.33 60.59C92.29 54.77 94.91 45.15 92.57 38.75ZM269.83 77.75C270.72 80.28 271.77 93.81 269.36 95.13C265.6 97.19 257.08 94.34 252.51 95.93C252.51 98.43 252.51 100.93 252.51 103.43C258.84 105.86 266.52 102.7 273.15 105.14C291.05 111.73 288.67 133.05 288.74 148.25C288.76 153.25 288.72 158.25 288.73 163.25C288.74 165.01 289.29 167.76 287.83 169.08C285.86 170.86 280.74 169.84 278.25 169.83C271.29 169.81 258.17 168.48 251.96 170.25C250.29 176.56 251.56 194.71 251.57 202.25C251.61 223.91 251.44 245.57 251.55 267.25C251.58 274.14 260.18 274.84 258.61 281.24C257.76 284.68 251.8 283.42 249.25 283.42C244.89 283.44 232.99 284.56 229.48 283.26C223.06 280.87 232.29 272.34 235.09 271.03C235.09 237.44 235.09 203.84 235.09 170.25C222.49 169.92 209.89 169.58 197.28 169.25C195.22 165.7 196.58 151.94 196.61 147.25C196.65 141.09 196.42 134.91 196.65 128.75C196.76 125.59 197.6 122.75 198.41 119.71C204.51 96.72 231.76 106.44 248.23 103.75C251.19 96.44 246.69 85.45 249.55 77.75C256.31 77.75 263.07 77.75 269.83 77.75ZM267.04 81.37C262.31 81.37 257.58 81.37 252.85 81.37C252.14 84.43 251.76 89.01 253.13 91.89C257.76 91.89 262.4 91.89 267.04 91.89C267.04 88.38 267.04 84.87 267.04 81.37ZM181.27 112.25C173.69 110.04 165.92 108.76 158.26 106.99C154.51 106.12 150 104.03 146.12 104.75C150.83 110.47 155.54 116.19 160.25 121.91C163.08 121.47 179.68 114.15 181.27 112.25ZM141.25 105.91C140.18 107.07 140.23 108.17 139.93 109.74C139.68 111.06 138.82 112.72 139.24 114.08C140.31 117.57 143.71 117.47 143.2 123.25C142.8 127.84 138.47 129.32 137.84 132.25C151.64 135.25 165.43 138.25 179.22 141.25C181.23 132.77 183.24 124.29 185.25 115.81C180.11 115.49 164.3 126.55 159.77 125.92C157.66 125.63 155.18 121.91 153.89 120.36C149.93 115.63 146 109.79 141.25 105.91ZM237.25 166.15C238.44 161.11 237.64 154.95 237.6 149.75C237.51 135.45 240.79 108.11 219.22 107.74C196.95 107.37 200.39 136.9 200.32 151.25C200.29 156.03 199.59 161.51 200.64 166.15C212.84 166.15 225.05 166.15 237.25 166.15ZM248.52 107.8C242.99 107.8 237.45 107.8 231.92 107.8C232.68 109.43 233.92 110.24 235.13 111.63C237.78 114.7 240.08 119.4 240.78 123.39C243.24 137.37 239.23 152.22 241.69 166.14C256.01 166.14 270.33 166.14 284.65 166.14C285.56 159.71 284.88 152.74 284.88 146.25C284.88 132.39 286.93 113.25 270.06 108.23C267.49 107.46 264.4 107.67 261.75 107.76C258.77 107.86 255.55 107.05 252.75 108.25C251.45 113.23 252.35 119.6 252.39 124.75C252.41 127.13 253.19 130.14 250.75 131.39C248.1 130.4 248.83 127.65 248.82 125.25C248.79 119.54 249.39 113.43 248.52 107.8ZM132.33 116.3C125.15 116.34 116.92 124.56 126.49 128.74C138.62 134.04 145.56 116.24 132.33 116.3ZM208.84 131.21C212.05 130.82 215.51 131.15 218.75 131.15C223.95 131.15 234.64 130.19 231.73 139.01C230.15 143.81 216.65 141.98 212.25 142C210.32 142.01 207.67 142.47 206.04 141.21C202.32 138.32 204.37 131.76 208.84 131.21ZM227.96 135.25C223.63 134.08 218.25 134.81 213.75 134.83C212.34 134.83 209.71 134.35 208.56 135.36C207.86 135.97 208.23 137.02 208.39 137.75C212.68 139.02 218.26 138.15 222.75 138.15C223.97 138.15 226.6 138.68 227.63 137.9C228.46 137.27 228.06 136.09 227.96 135.25ZM16.4 160.71C10.21 162.03 9.1 179.44 18.72 178.38C27.64 177.39 25.46 158.77 16.4 160.71ZM247.87 169.91C244.71 169.91 241.56 169.91 238.41 169.91C238.41 203.19 238.41 236.46 238.41 269.73C241.56 269.73 244.71 269.73 247.87 269.73C247.87 236.46 247.87 203.19 247.87 169.91ZM40.49 277.25C36.05 270.36 20.9 270.51 19.75 277.29C22.34 280.69 38.38 281.21 40.49 277.25ZM93.75 277.5C91.63 271.69 74.64 269.48 73.06 276.75C75.55 281.05 90.5 280.91 93.75 277.5ZM254.75 278.83C252 271.72 232.73 271.41 232.07 279.25C233.65 280.21 235.91 279.76 237.75 279.74C241.46 279.69 252.26 280.89 254.75 278.83Z" fill="#181818" fill-rule="evenodd" stroke="#181818" stroke-width="0.25" stroke-linejoin="round"/>
</svg>