<?xml version="1.0" encoding="UTF-8"?>
<svg xmlns="http://www.w3.org/2000/svg" viewBox="0 0 500 500" width="500" height="500">
<path d="M107.85 142C107.86 139.5 107.86 137 107.86 134.5C108.81 116.83 122.91 104.18 140.76 105.61C149.87 106.34 157.66 110.63 165.69 114.56C171.7 117.52 178.02 120.21 184.29 122.48C185.84 123.05 190.15 124.3 189.73 126.47C189.28 128.8 186.59 128.93 184.72 129.44C179.54 130.84 174.08 131.39 169 133.25C168.13 136.95 169.22 141 168.67 144.78C168.06 149.03 165.84 152.75 164.96 156.75C165.94 158.58 168.35 159.26 168.74 161.51C169.43 165.57 163.08 177.97 158.37 177.76C149.42 177.35 140.73 170.14 133.25 169.06C132.73 170.65 132.09 174.07 133.16 175.58C134.88 178.04 139.54 179.7 142.09 181.19C149.26 185.4 156.62 190.01 163.38 194.85C165.91 196.66 171.52 201.65 174.71 201.39C178.01 201.13 194.06 191.4 197.28 189.01C198.69 187.96 202.15 186.82 202.77 185.1C203.48 183.12 203.19 180.78 203.98 178.75C205.56 174.68 207.74 172.12 208.26 167.56C208.55 164.95 208.13 161.08 211.29 160.01C219.97 157.06 217.28 169.57 217.75 173.53C221.19 174.39 225.27 172.88 228.15 175.61C230.77 178.09 228.89 179.96 228.97 182.75C229.01 184.15 229.88 185.26 229.64 186.75C229.45 187.95 228.36 188.67 228.12 189.8C227.59 192.31 228.86 194.72 226.26 196.52C221.87 199.55 211.72 198.95 207.4 195.84C205.19 194.26 204.6 192.11 203.25 190.02C199.09 190.63 187.13 198.83 182.55 201.3C180 202.67 177.26 205.17 174.25 205.12C170.5 205.06 166.76 200.93 163.7 199.03C155.59 193.99 147.68 188.64 139.44 183.8C137.21 182.49 135.25 180.61 132.75 179.92C130.88 183.64 131.03 201.2 131 206.25C130.93 215.96 131.85 225.35 132.75 234.99C132.95 237.1 132.59 239.6 133.17 241.63C138.3 259.43 146.49 277.22 148.98 295.75C150.67 308.39 150.89 321.09 151.78 333.77C152.09 338.19 150.83 344.17 152.5 348.25C157.13 347.61 174.1 348.63 172.39 356.67C171.22 362.15 150.64 361.03 149.15 356.15C148.29 353.34 149.07 349.68 148.89 346.75C148.32 337.85 148.17 328.92 147.7 320C147.21 310.47 146.75 301.13 144.9 291.78C143.79 286.15 141.53 280.71 140.18 275.15C138.85 269.7 136.74 264.52 135.22 259.13C134.47 256.48 134.04 251.23 131.75 249.62C125.75 282.16 119.75 314.71 113.76 347.25C116.89 350.3 123.39 350.61 123.87 356.27C124.13 359.3 120.69 360.21 118.41 360.7C114 361.65 102.91 361.57 99.34 358.45C92.91 352.84 106.5 348.69 109.75 347.66C111.35 344.38 111.33 340.3 112.12 336.78C114.13 327.76 115.55 318.47 117.18 309.35C119.8 294.67 122.17 279.91 125.02 265.25C126.57 257.3 129.16 248.89 129.55 240.75C129.9 233.45 128.15 226.05 127.91 218.75C127.63 209.61 127.63 200.38 128.15 191.25C128.31 188.44 129.93 182.93 128.25 180.62C123.6 183.45 119.68 188.96 116.58 193.35C107.25 206.59 97.64 227.12 101.32 243.75C102.93 244.51 104.67 244.99 105.89 246.36C111 252.15 111.04 265.62 101.25 266.07C88.5 266.66 88.55 248.79 97.39 243.75C98.83 238.79 97.23 232.98 98.19 227.85C100.33 216.33 104.27 206.51 110.2 196.43C113.41 190.99 117.69 185.85 122.08 181.35C126.75 176.57 130.67 175.61 129.38 167.78C129.02 165.62 117.99 160.28 115.58 158.67C108.83 154.17 108.43 149.8 107.85 142ZM182.68 126.25C181.7 124.61 179.45 124.4 177.7 123.55C172.69 121.12 167.45 119.18 162.39 116.84C154.31 113.1 146.11 108.05 136.75 108.9C114.82 110.88 105.51 132.49 113.25 152.07C114.26 154.64 122.13 158.62 124.67 160.07C132.84 164.72 141.49 169.63 150.58 172.22C153.07 172.93 156.05 174.64 158.73 173.98C161.24 173.36 165.06 166.12 165.42 163.7C166.27 158.12 153.24 161.7 149.74 161.34C136.94 159.99 123.9 151.07 127.82 136.71C129.67 129.92 136.77 128.98 142.71 128.3C150.34 127.44 157.67 130.1 165.25 130.11C168.5 130.12 171.65 128.78 174.77 128.07C177.33 127.49 180.5 127.68 182.68 126.25ZM164.75 134.06C156.63 131.84 146.09 130.45 137.78 132.53C131.36 134.14 128.45 140.94 131.19 147.1C134.55 154.68 153.57 161.39 160.62 156.85C164.98 154.05 166.59 138.39 164.75 134.06ZM212.75 163.22C210.5 165.4 211.52 169.42 210.92 172.23C209.42 179.21 203.17 183.03 207.32 190.93C209.71 195.5 222.16 197.2 225.01 192.75C224.04 191.75 223.08 190.75 222.11 189.75C223.03 187.42 226.06 188.42 226.25 185.63C225.08 183.85 223.29 184.17 223.23 181.75C224.27 180.92 225.31 180.08 226.35 179.25C224.63 174.68 216.91 178.4 213.43 176.25C212.84 173.05 217.94 164.51 212.75 163.22ZM359.25 235.98C363.18 235.42 366.83 233.56 370.75 233.01C382.66 231.32 393.31 234.32 403.91 239.33C407.15 240.86 416.9 246.71 416.43 250.73C416.23 252.5 414.21 253.49 412.59 253.21C407.65 252.38 402.49 250.09 397.69 248.62C388.68 245.86 371.05 246.13 362.92 251.25C363.06 255.1 370.97 272.32 373.46 275.75C376.86 276.46 383.2 273.86 387.25 273.84C397.64 273.8 408.28 277.15 416 284.25C436.65 303.24 435.18 337.48 411.41 353.2C406.84 356.22 401.73 358.93 396.23 359.9C368.07 364.89 338.96 340.41 344.49 310.75C345.87 303.34 348.66 296.51 353.27 290.52C354.71 288.64 361.56 283.21 361.87 281.72C362.27 279.8 360.85 278.27 360.19 276.6C358.82 273.12 354.4 261.3 351.75 259.51C345.39 263.9 341.73 271 337.4 277.14C336.1 278.99 333.77 282.43 331.23 280.03C328.94 277.87 331.03 273.42 331.72 270.94C333.5 264.46 337.15 257.79 341.14 252.38C343.6 249.03 347.4 247.59 344.75 243.14C342.35 244.31 341.25 247.91 339.86 250.13C335.21 257.55 331.6 266.06 328.47 274.24C327.35 277.16 326.68 281.83 323.94 283.69C320.89 285.76 318.47 283.52 315.25 283.91C315.16 286.72 318.12 288.8 318.67 291.69C319.8 297.65 315.68 306.53 311.64 310.89C304.5 318.57 284.94 314.74 275.25 314.38C271.13 314.23 266.48 314.77 262.47 313.76C259.16 312.93 258.58 310.6 256.75 308.23C251.25 309.7 245.75 311.17 240.25 312.64C238.9 317.06 239.99 322.52 238.91 327.23C236.82 336.28 231.38 344.16 224.52 350.28C200.96 371.29 165.28 355.75 157.17 327.63C148.75 298.4 176.64 271.05 205.23 275.16C214.51 276.49 223.85 282.29 229.86 289.37C232.1 292 233.57 295.24 235.75 297.88C241.43 296.51 247.1 295.13 252.78 293.75C251.1 290.6 249.43 287.44 247.75 284.29C244.91 283.84 242.29 284.61 239.35 283.85C228.86 281.13 215.67 271.33 206.83 264.93C203.58 262.57 193.86 255.51 195.24 250.91C196.05 248.21 199.29 247.25 201.38 245.75C200 244.42 197.35 244.4 195.45 243.77C188.23 241.37 180.23 241.7 172.75 240.58C170.11 240.19 163.31 241.02 163.22 237.24C163.08 231.49 177.07 232.04 180.75 231.92C186.94 231.71 193.32 231.75 199.49 232.24C203.01 232.53 206.77 233.63 210.25 233.65C212.21 233.67 213.6 232.07 215.75 232.08C222.91 232.12 229.77 234.3 236.77 235.39C250.33 237.5 265.14 240.65 278.72 237.41C287.86 235.23 297.02 230.42 305.67 226.9C309.26 225.44 312.82 222.96 316.86 222.73C319.6 222.57 321.73 224.62 324.25 225.09C326.07 223.99 331.42 220.25 331.78 218.13C332.58 213.5 326.2 212.78 330.53 206.75C329.39 203.75 326.44 198.51 322.75 198.84C320.49 199.05 319.29 200.69 316.75 200.02C315.04 199.57 314.48 197.83 312.97 197.29C309.43 196.03 304.28 198.44 303.34 193.25C302.25 187.24 307.89 188.35 311.68 187.82C313.99 187.5 314.74 185.23 316.89 184.7C319.81 183.99 320.53 186.15 322.88 186.81C325.33 187.5 327.37 186.39 329.63 188.12C330.99 189.16 333.55 195.66 335.93 198.34C337 199.55 338.32 201.79 339.68 202.58C341.59 203.69 343.47 203.35 344.93 205.34C346.8 207.87 347.95 211.59 349.29 214.47C352.67 221.66 356.73 228.5 359.25 235.98ZM317.75 188.02C316.86 188.74 316.25 190.42 315.13 190.82C312.49 191.78 308.63 189.53 306.75 192C307.2 195.18 313.27 193.77 315.75 194.23C316.42 195.12 317.08 196.01 317.75 196.91C322.23 196.32 322.11 188.74 317.75 188.02ZM323.98 190.36C323.98 192.16 323.98 193.95 323.98 195.75C329.47 197.74 330.5 189.27 323.98 190.36ZM330.25 197.52C328.72 199.82 332.91 206.28 335.75 204C335.36 201.64 332.51 198.2 330.25 197.52ZM355.33 234.75C353.88 227.86 349.08 221.48 346.11 215.15C344.96 212.71 343.96 207.7 341.45 206.31C339.09 205 333.62 208.31 332.2 210.25C342.88 232.48 353.57 254.71 364.25 276.93C365.81 276.04 367.36 275.14 368.92 274.25C368.24 269.77 358.5 250.4 355.89 245.35C355.07 243.77 351.23 236.72 352.72 235.47C353.37 234.93 354.56 234.99 355.33 234.75ZM333.75 221.85C331.8 223.48 329.84 225.12 327.89 226.75C329.21 229.47 336.26 232.3 339.25 233C337.42 229.28 335.58 225.57 333.75 221.85ZM317.25 225.79C305.72 234.27 294.19 242.76 282.66 251.25C283.43 253.15 286.02 256.01 285.74 258.13C285.44 260.41 283.17 262.41 282.17 264.39C279.67 269.35 276.76 274.11 274.39 279.15C272.7 282.75 268.27 287.34 270.25 291.48C273.99 292.55 292.51 292.31 286.48 301.69C282.91 307.26 256.8 306.93 262.85 295.62C263.64 294.14 265.17 293.35 266.36 292.25C265.67 284.6 273.48 273.36 277.29 266.54C279.91 261.87 283.84 258.52 279.75 253.62C271.79 255.83 263.82 258.04 255.86 260.25C256.84 263.82 263.49 276.75 260.99 279.24C258.54 281.67 253.97 281.2 251.25 283C251.81 286.77 255.45 289.46 256.76 292.96C258.26 297.01 258.72 306.76 261.6 309.63C264.24 312.27 268.96 310.87 272.27 311.25C280 312.13 287.96 311.99 295.75 312.03C300.82 312.05 305.17 312.59 308.99 308.73C312.49 305.2 316.6 297.35 315.47 292.27C314.41 287.5 310.24 285.71 312.25 280.22C315.15 279.61 319.26 282.78 321.65 281.45C323.62 280.35 325.7 272.26 326.72 269.95C329.62 263.41 332.52 256.9 335.78 250.52C337.63 246.89 340.53 243.65 341.78 239.75C340.5 237.18 337.15 236.35 334.77 235C329.4 231.94 323.2 227.41 317.25 225.79ZM301.35 232.75C298.77 232.37 296.34 234.39 293.93 235.23C287.25 237.53 280.8 240.82 273.74 241.93C261.07 243.91 245.02 239.61 232.39 237.79C228.72 237.26 217.82 234.13 215.03 235.75C216.11 242.22 230.33 246.11 236.04 248.22C242.28 250.53 249.21 255.71 255.9 256.25C257.76 256.4 259.75 255.57 261.57 255.27C276.6 252.8 279.77 248.22 291.5 240.26C294.62 238.15 299.16 235.86 301.35 232.75ZM258.25 276.78C258.26 274.28 252.87 259.76 251.05 258.21C248.75 256.24 234.64 251.23 230.97 249.75C226.36 247.89 220.39 246.2 216.21 243.54C213.94 242.09 213.24 238.35 211.01 237.27C206.22 234.97 196.18 235.17 190.75 235.08C185.97 234.99 170.93 233.96 167.5 236.75C172.13 238.05 177.02 237.62 181.75 238.1C187.32 238.66 193.06 239.84 198.45 241.27C201.23 242.01 207.23 242.91 208.36 245.75C206.82 248.75 201.65 248.91 198.99 250.75C197.55 254.96 208.99 262.65 212.26 264.98C218.53 269.44 235.91 280.96 243.06 281.74C245.61 282.01 250.46 280.03 252.82 279.09C254.76 278.31 256.68 278.23 258.25 276.78ZM412.25 249.68C411.87 247.09 402.7 242.16 400.25 241.01C389.94 236.2 378.46 234.22 367.25 237.08C364.27 237.84 359.91 238.44 357.73 240.75C358.74 243.26 359.74 245.76 360.75 248.27C363.66 248.19 366.49 246.37 369.31 245.57C373.71 244.31 379.17 243.54 383.75 243.75C388.2 243.96 393.19 244.12 397.51 245.25C402.09 246.45 407.56 249.69 412.25 249.68ZM99.33 247.28C93.34 247.68 91.34 264.38 101.99 262.72C108.64 261.69 106.44 246.82 99.33 247.28ZM347.25 250.21C342.17 254.3 337.34 263.1 335.43 269.24C334.88 271.01 332.93 274.76 334 276.25C336.83 274.06 338.91 268.87 341.14 265.88C343.87 262.23 347.91 259.43 350.47 255.75C349.87 253.76 349.13 251.2 347.25 250.21ZM363.25 285.85C358.93 288.01 354.67 293.12 352.72 297.49C345.88 312.8 344.61 323.22 353.35 338.39C359.58 349.22 376.22 358.71 388.75 357.85C394.86 357.43 400.95 355.27 406.43 352.69C411.4 350.35 415.93 345.72 419.11 341.36C425.93 332.02 429.88 319.23 426.69 307.59C420.9 286.44 397.24 270.46 375.68 279.25C379.42 287.75 383.15 296.25 386.88 304.75C391.21 306.05 396.06 306.05 398.52 310.73C403.61 320.42 395.76 331.98 384.76 329.49C379.36 328.26 374.77 324.05 374.48 318.25C374.36 315.91 375.79 313.43 375.52 311.27C374.94 306.73 370.18 299.43 368.09 295.16C366.6 292.11 365.79 288.19 363.25 285.85ZM231.79 299.25C231.46 295.26 227.25 291.38 224.43 288.8C216.49 281.53 207.12 277.66 196.25 278.05C172.97 278.9 154.89 302.92 160.18 325.64C165.3 347.66 188.26 361.12 209.81 354.62C223.41 350.52 233.92 337.6 236.07 323.75C236.57 320.5 237.62 317.53 236.51 314.25C233.57 313.72 230.97 315.2 228.13 315.81C221.86 317.15 214.06 318.49 208.25 321.24C203.63 336.11 179.97 326.56 187.02 312.28C189.15 307.97 193.91 304.32 199.06 305.25C201.11 305.61 203.19 307.18 205.25 307.19C207.51 307.21 209.96 305.88 212.1 305.29C216.84 303.98 228.19 301.79 231.79 299.25ZM370.99 278.25C368.56 277.85 366.63 279 365.25 281C365.82 284.5 368.41 288.11 369.97 291.29C372.97 297.37 375.43 303.69 378.48 309.77C379.75 312.31 381.15 318.76 385.13 316.85C389.09 314.94 385.66 310.04 384.47 307.3C381.47 300.39 378.34 293.48 375 286.74C373.64 284 372.82 280.72 370.99 278.25ZM268.89 295.2C266.32 295.88 263.57 298.98 266.82 300.95C268.99 302.27 283.02 302.24 283.77 299.59C285.02 295.14 271.51 294.5 268.89 295.2ZM254.25 296.81C237.08 301.55 219.92 306.28 202.75 311.02C193.95 303.23 184.06 316.47 192.73 324.02C196.27 327.1 201.44 325.99 204.22 322.45C205.45 320.88 205.22 318.73 207.27 318.02C223.11 312.48 240.43 310.97 256.14 304.75C255.51 302.1 254.88 299.46 254.25 296.81ZM378.25 317.41C376.47 325.54 388.45 328.83 393.78 324.54C399.22 320.15 397.29 307.18 388.99 308.75C389.33 311.27 390.75 313.51 390.07 316.24C388.57 322.15 381.24 320.23 378.25 317.41ZM120.2 356.75C119.94 348.93 105.09 350.42 101.5 355.25C103.51 358.89 117.32 359.19 120.2 356.75ZM168.91 355.75C166.8 351.34 154.89 348.23 152.21 353.25C152.72 358.34 165.9 358.63 168.91 355.75Z" fill="#161615" fill-rule="evenodd" stroke="#161615" stroke-width="0.25" stroke-linejoin="round"/>
<path d="M107.86 134.5C107.86 137 107.86 139.5 107.85 142C107.74 141.92 107.62 141.83 107.5 141.75C107.5 139.42 107.5 137.08 107.5 134.75C107.62 134.67 107.74 134.58 107.86 134.5Z" fill="#ffffff" fill-rule="evenodd" stroke="#ffffff" stroke-width="0.25" stroke-linejoin="round"/>
</svg>