<?xml version="1.0" encoding="UTF-8"?>
<svg xmlns="http://www.w3.org/2000/svg" viewBox="0 0 345 258" width="345" height="258">
<path d="M19.86 38C19.86 35.5 19.86 33 19.86 30.5C20.86 12.67 35.21 -0.11 53.27 1.65C63.64 2.67 72.55 8.16 81.79 12.49C85.82 14.38 90.12 16.47 94.31 17.92C96.69 18.75 100.59 19.44 101.75 21.85C101.46 24.7 99.07 24.81 96.72 25.44C91.64 26.79 85.4 26.95 80.75 29.5C80.76 34.32 81.35 39.53 80 44.23C79.19 47.09 77.57 49.94 76.96 52.75C77.95 54.61 80.32 55.26 80.73 57.54C81.46 61.6 75.07 73.94 70.37 73.75C61.42 73.4 52.79 66.19 45.25 65.06C44.73 66.67 44.05 70.08 45.16 71.59C46.97 74.05 51.5 75.66 54.09 77.19C61.26 81.41 68.62 86.01 75.38 90.85C77.91 92.66 83.52 97.65 86.71 97.38C90.03 97.1 106.06 87.42 109.27 85.01C110.69 83.95 114.14 82.84 114.77 81.1C115.47 79.12 115.2 76.77 115.98 74.75C117.55 70.66 119.75 68.14 120.25 63.54C120.54 60.95 120.16 57.07 123.29 56C131.94 53.06 129.31 65.55 129.75 69.51C133.2 70.43 137.25 68.87 140.16 71.61C142.77 74.07 140.9 75.97 140.98 78.75C141.02 80.15 141.88 81.27 141.65 82.75C141.46 83.95 140.37 84.68 140.12 85.81C139.6 88.24 140.83 90.37 138.54 92.3C134.84 95.42 123.24 94.62 119.39 91.85C117.19 90.27 116.59 88.11 115.25 86.02C111.06 86.65 99.15 94.81 94.54 97.3C92 98.67 89.25 101.18 86.25 101.13C82.5 101.07 78.76 96.93 75.7 95.03C68.72 90.68 61.77 86.36 54.86 81.88C51.82 79.92 48.22 76.86 44.75 75.92C42.88 79.65 43.04 97.19 43.01 102.25C42.94 111.87 43.82 121.18 44.73 130.73C44.94 132.95 44.58 135.49 45.17 137.63C50.18 155.52 58.41 173.17 60.98 191.75C62.72 204.35 62.72 217.02 63.77 229.66C64.15 234.14 62.82 240.09 64.5 244.25C69.13 243.61 86.11 244.62 84.4 252.68C83.24 258.15 62.64 257.03 61.15 252.15C60.29 249.34 61.06 245.68 60.89 242.75C60.34 233.85 60.16 224.92 59.7 216C59.21 206.47 58.74 197.13 56.9 187.78C55.79 182.15 53.51 176.72 52.17 171.15C50.87 165.71 48.72 160.53 47.21 155.14C46.48 152.52 46.04 147.19 43.75 145.63C37.75 178.17 31.76 210.71 25.76 243.25C28.91 246.3 35.39 246.62 35.88 252.27C36.14 255.28 32.67 256.2 30.41 256.7C26.04 257.67 14.86 257.55 11.34 254.46C4.91 248.82 18.5 244.71 21.75 243.65C23.35 240.37 23.33 236.29 24.11 232.78C26.12 223.76 27.58 214.47 29.17 205.35C31.7 190.82 34.14 176.24 36.94 161.75C38.51 153.64 41.19 145.03 41.55 136.75C41.86 129.44 40.14 122.06 39.9 114.75C39.6 105.62 39.58 96.37 40.14 87.25C40.31 84.43 41.92 78.96 40.25 76.62C35.6 79.46 31.67 84.96 28.59 89.36C19.09 102.91 9.68 122.67 13.3 139.75C14.92 140.56 16.64 140.97 17.88 142.36C23.04 148.15 23.02 161.63 13.25 162.07C0.54 162.64 0.5 144.76 9.39 139.75C10.81 134.78 9.22 128.98 10.19 123.85C12.36 112.34 16.24 102.51 22.21 92.44C25.44 86.99 29.69 81.88 34.09 77.36C36.03 75.36 39.46 73.43 40.88 71.12C41.89 69.49 41.67 65.62 41.37 63.78C41.01 61.61 29.99 56.3 27.57 54.68C20.86 50.18 20.42 45.77 19.86 38ZM94.69 22.25C93.7 20.6 91.45 20.4 89.7 19.55C84.69 17.11 79.45 15.16 74.38 12.85C66.26 9.15 58.16 4.04 48.75 4.89C26.82 6.88 17.51 28.51 25.24 48.08C26.25 50.64 34.14 54.62 36.67 56.07C44.85 60.73 53.49 65.62 62.59 68.22C65.08 68.93 68.05 70.64 70.73 69.98C73.24 69.36 77.05 62.12 77.42 59.7C78.28 54.1 65.24 57.72 61.72 57.34C48.92 55.98 35.91 47.08 39.81 32.7C41.65 25.93 48.79 24.96 54.71 24.32C62.52 23.47 70 26.3 77.75 26.1C80.81 26.02 83.82 24.75 86.77 24.06C89.33 23.47 92.49 23.69 94.69 22.25ZM76.75 30.08C68.58 27.88 58.14 26.43 49.79 28.54C43.38 30.16 40.43 36.92 43.19 43.1C46.56 50.63 65.59 57.45 72.62 52.85C77 49.99 78.57 34.45 76.75 30.08ZM124.75 59.23C122.51 61.38 123.52 65.44 122.91 68.22C121.38 75.19 115.18 79.06 119.32 86.93C121.72 91.49 134.16 93.21 137 88.75C136.04 87.75 135.08 86.75 134.11 85.75C135.03 83.44 138.03 84.4 138.25 81.63C137.07 79.85 135.29 80.18 135.22 77.75C136.26 76.92 137.3 76.08 138.34 75.25C136.68 70.67 128.89 74.41 125.43 72.25C124.85 69.08 129.95 60.45 124.75 59.23ZM271.25 131.97C275.18 131.44 278.83 129.52 282.75 129C294.74 127.43 305.23 130.31 315.92 135.32C319.16 136.84 328.9 142.72 328.43 146.73C328.2 148.73 325.94 149.51 324.22 149.12C319.16 147.99 314.24 145.89 309.25 144.5C300.17 141.97 283.08 142.12 274.93 147.25C275.05 150.88 283.07 168.62 285.48 171.75C288.87 172.47 295.22 169.86 299.25 169.84C309.65 169.8 320.27 173.15 328 180.26C348.78 199.37 347 233.28 323.41 249.19C318.88 252.25 313.7 254.93 308.23 255.91C280.14 260.95 250.86 236.36 256.49 206.75C257.9 199.34 260.65 192.53 265.26 186.52C266.71 184.64 273.55 179.2 273.86 177.71C274.26 175.81 272.83 174.27 272.19 172.61C270.82 169.1 266.42 157.33 263.75 155.51C257.38 159.86 253.71 167.01 249.4 173.14C248.1 174.99 245.77 178.44 243.23 176.02C240.95 173.85 243.03 169.43 243.71 166.93C245.48 160.46 249.16 153.77 253.14 148.38C255.6 145.04 259.41 143.56 256.75 139.13C254.35 140.34 253.26 143.9 251.86 146.14C247.21 153.55 243.57 162.07 240.47 170.24C239.37 173.17 238.68 177.84 235.94 179.69C232.9 181.75 230.46 179.54 227.25 179.91C227.15 182.73 230.14 184.77 230.67 187.68C231.77 193.7 227.7 202.47 223.63 206.89C216.57 214.55 196.89 210.77 187.25 210.38C183.13 210.21 178.47 210.78 174.45 209.76C171.16 208.93 170.58 206.59 168.75 204.23C163.25 205.7 157.75 207.16 152.25 208.63C150.98 212.84 151.83 218.24 150.98 222.75C149.28 231.83 143.36 240.71 136.26 246.51C112.34 266 77.29 252.1 69.17 223.63C60.88 194.55 88.54 166.85 117.21 171.16C126.51 172.56 135.85 178.22 141.86 185.37C144.09 188.01 145.56 191.25 147.75 193.88C153.43 192.5 159.1 191.13 164.78 189.75C163.1 186.6 161.43 183.44 159.75 180.29C156.9 179.84 154.3 180.61 151.35 179.84C140.93 177.12 127.57 167.37 118.79 160.96C115.54 158.58 105.87 151.48 107.23 146.9C108.04 144.2 111.29 143.27 113.37 141.75C111.96 140.39 109.36 140.41 107.44 139.78C100.2 137.4 92.24 137.74 84.75 136.58C82.09 136.17 75.35 137.05 75.22 133.23C75.03 127.5 89.12 128.03 92.75 127.92C98.88 127.74 105.07 127.87 111.19 128.22C114.84 128.44 118.65 129.63 122.25 129.66C124.22 129.68 125.58 128.08 127.75 128.09C134.91 128.12 141.77 130.29 148.77 131.4C162.32 133.54 177.14 136.61 190.72 133.41C199.85 131.26 209.04 126.42 217.67 122.9C221.26 121.43 224.83 118.96 228.86 118.72C231.6 118.56 233.72 120.62 236.25 121.08C238.07 119.99 243.43 116.25 243.78 114.13C244.55 109.49 238.26 108.78 242.51 102.75C241.42 99.74 238.42 94.5 234.75 94.84C232.49 95.05 231.28 96.71 228.75 96.03C227.04 95.58 226.48 93.83 224.98 93.29C221.44 92.02 216.28 94.46 215.34 89.25C214.21 83 220.24 84.49 224.04 83.75C226.12 83.35 226.86 81.17 228.88 80.7C231.81 80.01 232.52 82.13 234.88 82.81C237.31 83.51 239.38 82.38 241.64 84.11C242.88 85.05 245.54 91.53 247.69 94.07C248.78 95.35 250.27 97.76 251.69 98.58C253.58 99.67 255.49 99.35 256.94 101.33C258.81 103.88 259.93 107.59 261.29 110.47C264.66 117.66 268.77 124.47 271.25 131.97ZM229.75 84.02C228.86 84.73 228.26 86.42 227.14 86.83C224.5 87.78 220.61 85.53 218.75 88C219.18 91.17 225.28 89.77 227.75 90.23C228.42 91.12 229.08 92.01 229.75 92.9C234.25 92.32 234.1 84.77 229.75 84.02ZM235.99 86.38C235.99 88.26 235.99 90.14 235.99 92.02C237.15 92.02 238.32 92.02 239.48 92.02C240.94 88.57 240.31 85.6 235.99 86.38ZM242.25 93.53C240.73 95.84 244.93 102.25 247.75 100C247.35 97.63 244.52 94.2 242.25 93.53ZM267.31 130.75C265.92 123.86 261.06 117.48 258.1 111.16C256.95 108.71 255.97 103.71 253.44 102.31C251.09 101.01 245.61 104.31 244.21 106.25C254.89 128.48 265.57 150.7 276.25 172.93C277.81 172.04 279.36 171.14 280.92 170.25C280.28 165.93 270.45 146.27 267.89 141.35C267.07 139.78 263.23 132.72 264.73 131.48C265.37 130.94 266.54 130.99 267.31 130.75ZM245.25 117.82C243.46 119.46 241.68 121.11 239.89 122.75C241.21 125.48 248.26 128.28 251.25 129C250.65 125.95 247.83 119.43 245.25 117.82ZM229.25 121.78C217.72 130.27 206.19 138.76 194.66 147.25C195.47 149.26 197.69 151.64 197.75 153.85C197.82 156.07 195.14 158.53 194.17 160.39C191.61 165.32 188.76 170.12 186.4 175.16C184.69 178.8 180.29 183.28 182.25 187.49C186.02 188.53 204.5 188.32 198.48 197.7C194.91 203.27 168.8 202.93 174.84 191.62C175.64 190.13 177.17 189.34 178.36 188.25C177.64 180.67 185.5 169.29 189.29 162.53C191.9 157.87 195.85 154.52 191.75 149.63C183.78 151.84 175.82 154.04 167.85 156.25C168.87 159.82 175.47 172.72 172.98 175.23C170.56 177.68 165.96 177.22 163.25 179C163.81 182.77 167.46 185.46 168.76 188.97C170.26 193.05 170.72 202.7 173.61 205.63C176.23 208.28 180.96 206.86 184.27 207.24C191.2 208.04 210.33 209.35 216.48 207.73C218.48 207.21 220.39 205.5 221.72 203.98C224.8 200.44 228.53 193.06 227.49 188.26C226.44 183.48 222.26 181.75 224.25 176.22C227.13 175.61 231.29 178.79 233.66 177.45C235.61 176.35 237.71 168.26 238.72 165.95C241.6 159.41 244.45 152.87 247.78 146.53C249.67 142.93 252.51 139.64 253.78 135.75C252.5 133.18 249.15 132.35 246.76 131C241.39 127.95 235.2 123.42 229.25 121.78ZM213.32 128.75C210.75 128.37 208.33 130.39 205.94 131.23C199.28 133.56 192.79 136.85 185.74 137.93C173.78 139.78 156.13 135.69 144.04 133.74C140.49 133.16 129.75 130.18 127.04 131.75C128.15 138.39 142.58 142.07 148.38 144.35C154.42 146.72 161.4 151.74 167.93 152.25C169.77 152.39 171.74 151.55 173.54 151.26C188.63 148.82 191.73 144.2 203.5 136.25C206.56 134.19 211.27 131.86 213.32 128.75ZM170.25 172.79C170.25 170.29 164.88 155.76 163.05 154.21C160.64 152.16 146.74 147.3 142.96 145.75C138.36 143.87 132.4 142.21 128.2 139.54C125.93 138.09 125.25 134.36 123 133.28C118.17 130.97 108.21 131.19 102.75 131.08C97.97 130.99 82.94 129.97 79.5 132.75C84.28 134.12 89.35 133.57 94.23 134.15C99.66 134.78 105.19 135.88 110.46 137.27C113.25 138 119.21 138.91 120.37 141.75C118.84 144.72 113.64 144.95 110.97 146.75C109.57 150.93 120.99 158.67 124.27 160.98C130.82 165.58 137.49 169.48 144.6 173.17C147.6 174.73 151.31 177.39 154.75 177.7C157.54 177.94 162.25 176.13 164.82 175.09C166.75 174.3 168.69 174.23 170.25 172.79ZM324.25 145.63C323.71 142.63 317.5 140.01 315.12 138.63C304.61 132.56 291.68 129.91 279.73 132.95C276.6 133.75 272.04 134.34 269.74 136.75C270.74 139.26 271.75 141.76 272.75 144.27C275.65 144.21 278.5 142.39 281.3 141.58C285.81 140.27 291.56 139.43 296.25 139.77C300.6 140.09 305.67 140.06 309.85 141.36C314.05 142.66 319.91 145.81 324.25 145.63ZM11.33 143.29C5.35 143.7 3.33 160.32 13.99 158.72C20.63 157.72 18.44 142.8 11.33 143.29ZM259.25 146.2C254.12 150.33 249.44 159.08 247.44 165.24C246.86 167 244.94 170.75 246 172.25C248.93 169.97 250.97 164.68 253.35 161.61C256.06 158.1 259.95 155.32 262.47 151.75C261.85 149.76 261.14 147.2 259.25 146.2ZM275.25 181.85C270.92 184.02 266.68 189.11 264.72 193.5C257.99 208.58 256.7 219.48 265.35 234.39C271.6 245.18 288.21 254.76 300.75 253.85C306.87 253.4 312.94 251.28 318.44 248.69C342.44 237.41 346.65 199.96 326.41 183.33C318.49 176.82 309.25 172.69 298.75 172.85C295.43 172.9 289.91 173.45 287.48 175.75C289.67 181.29 292.49 186.44 294.81 191.89C295.87 194.35 296.78 198.61 298.74 200.5C300.02 201.73 304.92 201.63 307.1 203.17C313.59 207.73 314.28 219.85 306.63 223.88C299.48 227.64 290.42 225.41 287.18 217.62C285.6 213.82 287.96 210.77 287.51 207.27C286.93 202.7 282.17 195.46 280.09 191.16C278.61 188.1 277.77 184.2 275.25 181.85ZM143.78 195.25C143.53 191.87 140.25 188.62 137.98 186.27C130 178.07 119.75 173.62 108.25 174.05C85 174.94 66.85 198.89 72.18 221.64C77.32 243.6 100.25 257.2 121.81 250.62C135.01 246.59 145.99 233.9 147.99 220.25C148.49 216.86 149.7 213.66 148.5 210.25C145.56 209.72 142.98 211.21 140.13 211.82C133.85 213.15 126.09 214.5 120.25 217.24C115.61 232.12 91.95 222.54 99.03 208.28C101.17 203.97 105.87 200.36 111.03 201.25C113.1 201.61 115.18 203.18 117.25 203.19C119.5 203.21 121.96 201.9 124.1 201.29C128.92 199.92 140.08 197.84 143.78 195.25ZM282.98 174.25C280.56 173.85 278.6 174.99 277.25 177C277.8 180.48 280.41 184.14 281.97 187.3C284.97 193.37 287.42 199.69 290.48 205.76C291.77 208.32 293.14 214.74 297.13 212.85C301.11 210.96 297.65 206.03 296.47 203.3C293.49 196.37 290.23 189.55 286.98 182.75C285.67 179.99 284.81 176.71 282.98 174.25ZM180.89 191.2C178.33 191.86 175.57 195.01 178.82 196.95C181 198.26 195.03 198.24 195.77 195.59C197.02 191.13 183.52 190.52 180.89 191.2ZM166.25 192.83C149.08 197.56 131.92 202.29 114.75 207.02C105.76 199.08 95.83 213 105.01 220.25C108.57 223.07 113.53 221.88 116.21 218.45C117.43 216.89 117.24 214.71 119.27 214.01C135.12 208.54 152.43 206.99 168.11 200.75C167.49 198.11 166.87 195.47 166.25 192.83ZM290.25 213.44C288.49 221.57 300.45 224.81 305.78 220.54C311.22 216.18 309.27 203.15 301.01 204.75C301.31 207.28 302.76 209.51 302.07 212.24C300.58 218.17 293.26 216.19 290.25 213.44ZM32.2 252.75C31.87 244.93 17.08 246.39 13.49 251.25C15.48 254.88 29.34 255.18 32.2 252.75ZM80.91 251.75C78.77 247.31 66.96 244.26 64.21 249.25C64.76 254.34 77.87 254.64 80.91 251.75Z" fill="#ffffff" fill-rule="evenodd" stroke="#ffffff" stroke-width="0.25" stroke-linejoin="round"/>
<path d="M19.86 30.5C19.86 33 19.86 35.5 19.86 38C19.74 37.92 19.62 37.83 19.5 37.75C19.5 35.42 19.5 33.08 19.5 30.75C19.62 30.67 19.74 30.58 19.86 30.5Z" fill="#fefefe" fill-rule="evenodd" stroke="#fefefe" stroke-width="0.25" stroke-linejoin="round"/>
</svg>