<?xml version="1.0" encoding="UTF-8"?>
<svg xmlns="http://www.w3.org/2000/svg" viewBox="0 0 298 302" width="298" height="302">
<path d="M188.37 16.75C185.98 18.08 183.59 19.42 181.21 20.75C185.72 21.63 190.26 20.68 194.72 22.05C204.53 25.08 202.81 38.9 203.73 47.06C204.02 49.6 205.41 61.08 203.71 62.49C201.1 64.66 196.92 64.94 193.84 66.11C189.03 67.96 173.58 74.32 169.25 74.16C167.65 74.1 166.28 73.33 164.73 73.07C156.82 71.76 148.72 69.18 140.75 68.64C138.96 72.13 140.15 87.92 140.15 92.75C140.14 101.75 138.87 112.89 140.2 121.64C141.09 127.49 144.21 132.9 145.71 138.57C147.92 146.97 150.59 155.46 153.38 163.75C160.33 163.84 167 157.5 173.77 156.12C177.77 155.31 180.1 158.06 183.75 158.39C186.33 156.01 188.91 153.63 191.49 151.25C190.81 146.38 187.59 144.33 190.33 139.25C189.75 136.79 186.51 131.47 183.75 131.52C181.53 131.56 180.22 133.22 177.82 132.82C175.66 132.46 174.88 130.22 172.93 129.78C169.45 129 163.69 130.86 163.54 125.25C163.38 119.3 168.95 120.71 172.75 119.99C174.67 119.62 175.42 117.59 177.32 117.1C180.38 116.31 180.9 118.27 183.32 118.91C185.39 119.46 187.5 118.41 189.47 119.77C191.72 121.33 191.1 123.47 192.23 125.56C193.66 128.22 196.31 130.7 198.16 133.11C199.97 135.48 202.97 135 204.87 137.36C206.9 139.88 208.02 143.43 209.41 146.32C213.17 154.1 216.91 161.82 220.25 169.72C225.51 169.33 230.85 166.46 236.25 165.83C247.71 164.5 260.68 168.2 270.17 174.56C273.14 176.55 280.26 180.01 280.06 184.25C279.77 190.3 269.9 185.07 267.07 184.23C255.91 180.89 244.43 179.25 233.01 182.26C230.12 183.02 225.81 183.65 223.62 185.75C227.45 194.08 231.28 202.42 235.11 210.75C238.79 211.47 243.8 209.07 247.75 208.92C259.37 208.49 271.07 212.06 279.74 220C299.55 238.13 299.23 270.97 278.51 288.26C273.51 292.43 267.12 296.52 260.6 297.78C226.59 304.35 196.47 275.88 206.05 241.27C207.78 235.02 211.42 229.22 215.5 224.26C216.9 222.57 222.56 218.69 222.93 217.22C223.39 215.37 221.72 212.91 221 211.24C218.88 206.3 215.67 197.78 212.25 193.89C205.34 197.7 200.7 206.95 196.64 213.38C195.4 215.34 192.61 217.6 190.46 215.28C188.48 213.13 190.48 209.56 191.02 207.24C192.81 199.6 196.87 192.96 201.39 186.64C203.42 183.79 208.23 180.1 204.25 177.01C198.23 182.57 191.83 200.04 188.14 207.87C186.63 211.06 185.69 217.78 182.51 219.74C179.44 221.62 175.96 219.38 172.7 219.75C173.07 222.94 176.26 225.04 176.84 228.33C177.88 234.31 173.28 243.22 169.42 247.65C167.97 249.31 165.8 251.25 163.62 251.82C155.99 253.82 137.46 252.05 128.75 251.81C124.8 251.7 119.54 252.37 115.81 250.92C112.77 249.74 112.28 247.03 110.5 244.75C104.43 246.25 98.36 247.75 92.29 249.25C90.9 252.06 91.3 259.31 90.7 262.87C89.49 270.11 85.59 277.54 80.83 283.09C56.95 310.86 16.14 297.37 6.03 264.73C4.87 261.01 4.99 257.1 5.01 253.25C5.19 227.79 28.07 207.05 53.75 210.04C70.12 211.95 78.7 221.36 87.25 234.11C90.18 234.56 103.5 230.98 105.97 229.25C105.84 226.31 102.5 222.48 100.75 220.02C97.78 219.88 94.94 220.46 91.99 219.75C90.05 219.28 88.38 218 86.64 217.11C76.48 211.89 66.12 206.88 57.25 199.5C53.42 196.31 43.13 189.38 46.25 183.48C47.37 181.35 50.51 181.01 52.33 179.75C50.65 177.87 47.1 177.78 44.66 177.18C37.85 175.51 30.26 174.24 23.25 173.91C20.41 173.77 14.48 175.07 12.57 172.16C10.33 168.75 14.68 166.59 17.25 165.94C24.34 164.12 32.49 164.95 39.75 165.06C44.8 165.14 49.73 165.23 54.75 165.89C56.9 166.17 59.09 167.06 61.25 167.03C63.56 167 64.88 165.13 67.25 165.12C70.61 165.12 73.65 166.3 76.77 166.95C81.47 167.93 86.56 167.35 91.25 168.31C92.19 168.5 92.85 169.27 93.77 169.55C98.36 170.96 104.46 171.32 109.25 171.49C111.76 171.58 114.16 171.01 116.75 171.28C121.86 171.8 127.95 173.59 132.91 171.75C133.88 166.04 133.51 160.03 134.03 154.25C135.01 143.27 136.43 132.24 137.09 121.25C137.46 115.15 136.65 108.87 136.67 102.75C136.7 95.35 138.2 78.15 136.75 72.05C133.72 73.92 131.55 79.34 129.71 82.46C126.85 87.28 122.71 92.94 121.13 98.33C119.63 103.42 119.48 109.02 118.63 114.25C118.05 117.8 115.98 123.61 116.72 127.15C117.12 129.07 120.98 130.75 121.77 136.99C122.43 142.26 120.73 152.03 113.16 149.63C107.2 147.73 107.03 135.38 109.46 130.72C110.38 128.96 113.25 128.42 113.77 126.6C114.31 124.71 114.01 122.23 114.15 120.26C114.57 114.19 115.95 102.83 118.01 97.28C120.66 90.12 125.21 82.49 129.42 76.14C131.36 73.2 135.94 67.83 136.94 64.7C137.73 62.25 137.26 58.23 136.79 55.75C131.24 51.57 122.1 50.45 117.96 44.3C115.92 41.27 116 36.74 115.88 33.25C115.37 18.29 123.79 5.49 138.88 2.19C149.8 -0.19 160.1 4.2 169.91 8.32C173.56 9.85 187.97 13.32 188.37 16.75ZM180.77 16.25C177.74 13.39 171.27 12.28 167.31 10.91C158.41 7.85 150.32 3.55 140.4 5.24C124.37 7.98 114.77 25.63 120.31 40.93C121.64 44.61 126.65 46.7 129.86 48.39C138.62 52.98 147.64 56.62 157.19 59.12C163.63 60.8 167.57 63.11 170.39 55.65C171.22 53.45 172.76 49.63 169.94 48.32C165.96 46.47 162.26 49.25 158.26 49.37C148.36 49.69 135.96 43.26 137.23 31.91C138.37 21.81 149.73 19.38 158.26 20.27C160.7 20.52 163.28 21.27 165.75 21.14C167.96 21.02 170.18 19.74 172.35 19.19C174.98 18.52 178.85 18.27 180.77 16.25ZM177.75 22C175.29 20.79 172.18 22.63 169.75 23.47C168.63 25.6 170.22 29.27 170.23 31.75C170.24 36.01 168.82 39.7 167.96 43.75C169.78 45.51 173.2 45.43 174.39 47.87C176.1 51.37 171.72 64.18 167.23 64.42C158.04 64.93 148.99 59.03 140.22 57.34C140.22 59.81 140.22 62.28 140.22 64.75C145.75 66.62 151.93 66.95 157.63 68.21C161.62 69.09 166.08 71.05 170.22 70.79C174.31 70.53 179.59 67.68 183.43 66.21C189.01 64.08 195.63 63.22 200.75 60.08C201.78 55.44 199.88 36.48 198.75 31.38C197 32.08 195.46 33.41 193.53 33.75C188.51 34.65 177.79 34.45 176.55 27.73C176.14 25.5 177.77 24.07 177.75 22ZM165.41 24.25C157.92 22.31 142.39 21.68 140.8 31.73C140.48 33.79 140.5 36.32 141.5 38.23C144.43 43.84 158.71 49.11 163.82 44.59C167.6 41.24 167.28 28.48 165.41 24.25ZM196.21 27.25C194.2 23.51 181.1 21.92 179.8 26.75C181.47 32.06 194.65 33.09 196.21 27.25ZM178.75 120.2C178.08 121.06 177.42 121.93 176.75 122.8C173.95 123.24 166.1 121.61 167.25 126.03C170.42 126.35 173.58 126.67 176.75 126.99C177.42 127.88 178.08 128.78 178.75 129.67C182.31 128.37 182.5 121.42 178.75 120.2ZM185.25 122.17C184.24 123.77 184.18 127.03 185.25 128.56C189.88 128.11 190.05 122.26 185.25 122.17ZM190.25 130.17C188.78 132.94 193.05 138.69 196.16 136.25C195.41 134.13 192.48 130.26 190.25 130.17ZM113.45 131.27C111.16 132.2 110.04 146.9 115.23 146.47C121.29 145.96 119.71 128.73 113.45 131.27ZM139.25 132.5C138.33 145.08 137.41 157.67 136.49 170.25C140.08 170.31 147.09 167.61 149.86 165.25C149.71 159.06 145.09 149.24 143.26 142.99C142.34 139.81 141.74 134.67 139.25 132.5ZM215.92 168.66C217.06 166.42 213.77 163.33 213.01 161.23C211.8 157.91 204.3 141.35 202.36 139.39C200.02 137.02 192.97 140.63 192.01 143.25C203.09 166.2 214.17 189.15 225.25 212.1C226.92 211.25 228.58 210.39 230.25 209.54C230.18 206.26 227.54 203.02 226.16 200.12C223.23 193.97 220.68 187.58 217.81 181.4C216.06 177.64 212.28 172.86 213.25 168.66C214.14 168.66 215.03 168.66 215.92 168.66ZM193.25 154.82C191.25 156.63 189.25 158.44 187.26 160.25C191.17 162.42 195.09 164.58 199 166.75C199.46 164.57 194.94 156.49 193.25 154.82ZM201.81 173.25C200.85 171.14 198.31 170.41 196.36 169.38C192.32 167.24 179.7 158.91 175.77 159.49C172.94 159.9 165.31 166.82 162.46 168.71C156.69 172.55 151.2 176.8 145.5 180.74C142.75 182.63 135.15 186.86 133.38 189.11C131.37 191.67 131.66 196.18 130.96 199.23C129.46 205.71 125.13 220.37 125.75 226.41C130.33 228.36 144.45 227.68 139.72 236.99C137.36 241.65 118.16 241.01 116.06 235.65C113.75 229.76 120.35 229.79 121.76 226.08C124.14 219.8 125.76 207.33 127.06 200.25C127.58 197.4 129.47 193.57 128.47 190.75C122.14 191.92 115.81 193.08 109.47 194.25C110.48 198.76 112.52 203.61 114.47 207.8C115.32 209.61 116.69 212.63 115.17 214.42C112.72 217.29 107.42 216.6 104.51 218.75C105.28 222.22 108.38 225.13 109.92 228.32C112.05 232.75 112.51 244.2 115.68 247.06C118.16 249.3 124.58 248.31 127.75 248.42C136.42 248.71 145.09 248.84 153.75 249.01C158.49 249.11 163.06 249.62 166.59 245.83C169.56 242.63 174.29 233.57 173.55 229.25C172.6 223.73 167.15 221.66 170.25 215.58C173.38 215.16 177.55 218.53 180.56 216.77C183.14 215.27 183.86 208.94 185.21 206.44C188.59 200.19 190.64 193.18 194.2 186.93C196.15 183.53 201.34 176.79 201.81 173.25ZM159.78 165.75C151.94 168.61 144.09 171.47 136.25 174.33C135.58 177.57 134.92 180.82 134.25 184.07C142.76 177.96 151.27 171.86 159.78 165.75ZM112.39 212.25C112.07 209.97 106.39 194.39 105.15 193.1C103 190.87 88.33 185.62 84.59 184.19C79.3 182.18 72.26 180.36 67.61 177.16C65.33 175.6 64.49 171.54 62.22 170.5C58.34 168.73 46.3 168.35 41.75 168.29C36.62 168.22 20.89 166.87 17.04 169.75C19.72 171.43 24.61 170.74 27.75 171.04C35.16 171.72 42.52 173.14 49.63 175.17C52.4 175.96 59.28 176.59 59.25 180.15C57.15 182.35 49.36 182.69 49.15 186.26C48.98 189.18 59.02 196.35 61.4 198.34C67.26 203.24 87.17 215.86 94.26 217.02C97.73 217.59 109.59 214.37 112.39 212.25ZM131.75 175.91C127.66 175.12 122.95 176.16 118.75 175.9C108.22 175.25 97.68 173.49 87.25 171.96C82.66 171.28 70 167.83 66.25 169C67.71 175.95 75.84 176.89 81.43 179.32C87.31 181.87 103.39 189.84 108.75 190.48C112.08 190.87 116.36 190.17 119.55 189.29C126.02 187.48 129.94 189.3 131.25 181.47C131.56 179.57 132.02 177.81 131.75 175.91ZM275.25 183C274.03 179.34 266.85 176.32 263.6 174.67C251.03 168.29 230.44 165.82 218.25 174.5C219.58 177.16 220.92 179.83 222.25 182.49C232.82 179.37 240.72 176.4 252.25 177.57C260.03 178.36 268.06 182.62 275.25 183ZM207.98 184.25C205.82 184.81 204.56 187.81 203.26 189.5C199.53 194.36 193.24 205.12 193.25 211.21C195.3 210.83 196.99 206.56 198.12 204.86C201.73 199.41 207.52 195.18 210.83 190.25C209.88 188.25 208.93 186.25 207.98 184.25ZM224.44 221.25C221.15 222.04 217.62 226.76 215.77 229.53C209.56 238.81 206.64 249.04 208.37 260.2C212.43 286.39 242.23 304.12 266.77 292.04C293.75 278.76 298.61 246.93 279.7 224.56C272.18 215.66 259.04 211.67 247.82 212.22C244.63 212.38 239.61 212.48 237.18 214.75C241.06 223.42 244.93 232.08 248.81 240.75C254.26 242.73 258.85 242.42 261.76 248.46C266.43 258.15 257.28 268.19 247.47 266.74C241.26 265.82 236.05 260.77 235.98 254.25C235.95 251.98 237.57 249.43 237.03 247.27C235.65 241.73 231.65 235.8 229.14 230.62C227.67 227.59 226.71 223.74 224.44 221.25ZM83.39 235.25C82.76 232.56 80.96 230.16 79.15 228.12C70.2 217.95 57.66 211.48 43.75 213.47C21.34 216.68 2.27 239.98 9.17 263.15C15.74 285.21 38.52 300.83 61.67 292.43C74.31 287.84 84.07 276.17 87.08 263.23C87.96 259.47 89.36 254.54 87.75 250.82C83.53 251.1 64.06 255.81 60.25 257.46C57.93 258.47 57.21 262.23 55.12 263.85C47.86 269.45 38.37 264.72 36.1 256.72C34.31 250.41 38.82 243.2 45.1 241.79C49.92 240.7 51.45 243.43 55.25 243.62C58.69 243.78 70.8 239.3 74.79 238.09C77.41 237.29 81.29 236.99 83.39 235.25ZM232.25 213.14C230.02 212.97 228.07 213.96 226.67 215.75C226.76 219.39 229.43 222.71 230.73 226.05C233.47 233.11 237.15 240.01 240.47 246.79C241.38 248.66 241.93 251.39 243.27 253C245.31 255.45 248.42 253.24 249.55 251.25C243.78 238.55 238.02 225.84 232.25 213.14ZM134.87 235.25C134.61 228.9 116.78 228.72 121.25 235.57C124.45 236.67 132.08 237.52 134.87 235.25ZM107.75 233.05C103.53 232.79 98.88 235.04 94.74 235.95C85 238.09 75.28 241.16 65.74 243.98C61.57 245.21 57.58 246.84 53.25 247.45C50.66 245.89 49.26 244.23 45.77 245.01C37.14 246.93 37.23 259.28 44.87 262.38C53.98 266.07 53.51 256.07 58.75 254.49C70.61 250.9 83 248.42 94.98 245.25C98.97 244.2 106.86 243.76 109.77 240.75C109.1 238.18 108.42 235.62 107.75 233.05ZM240 253.75C238.53 255.73 240.8 259.41 242.38 260.85C245.97 264.09 250.77 264.97 254.96 262.21C261.77 257.73 260.47 244.84 251.22 244.75C250.99 247.36 253.38 249.34 252.81 252.13C251.49 258.47 243.58 257.88 240 253.75Z" fill="#181818" fill-rule="evenodd" stroke="#181818" stroke-width="0.25" stroke-linejoin="round"/>
</svg>