<?xml version="1.0" encoding="UTF-8"?>
<svg xmlns="http://www.w3.org/2000/svg" viewBox="0 0 1264 864" width="1264" height="864">
<path d="M995 124C993.37 124.24 991.75 124.48 990.12 124.72C983.07 125.14 975.92 125 970 129.08C958.15 125.22 945.96 122.96 933.5 122.06C931.22 121.89 928.81 122.82 926.66 122.59C920.54 121.95 913.71 113.97 907.38 114.5C910.18 119.68 919.12 121.86 923.85 125.5C923.07 127.74 922.28 129.98 921.5 132.23C915.36 129.65 909.21 127.08 903.07 124.5C905.1 130.51 915.28 131.53 919.8 135.69C921.9 137.62 921.29 141.13 923.06 143.42C926.48 147.86 935.5 153.04 940.36 156.12C942.34 157.38 945.1 159.62 947.53 159.73C951.64 159.93 956.55 156.27 960.5 155.19C961.24 155.83 961.97 156.47 962.71 157.11C964.03 160.12 966.01 163.06 966.06 166.5C966.16 174.59 954.22 188.81 945.56 186.91C940.77 185.86 931.03 179.64 926.71 176.78C923.46 174.62 920.62 172.06 917.5 175.28C917.52 177.95 922.54 185.57 923.62 189.79C924.96 195.04 924.46 201.08 925.42 206.5C928.59 208.55 932.16 212.57 935.78 213.61C938.6 214.42 941.52 214.16 944.37 215.14C946.92 216.02 949.91 218.42 952.54 218.61C953.8 218.71 955.23 218.1 956.5 217.99C963 217.47 976.08 216.96 982.19 218.38C985.69 219.19 986.79 222.42 989.79 223.62C993.18 224.97 996.23 224.88 999.48 226.99C1007.57 232.25 1015.13 242.34 1019.9 250.64C1021.73 253.81 1022.66 257.39 1024.5 260.4C1028.53 258.92 1031.51 255.95 1035.06 253.55C1039.46 250.58 1044.07 247.73 1048.78 245.29C1069.91 234.32 1092.78 231.56 1115.82 237.59C1122.17 239.26 1130.05 240.79 1134.88 245.5C1128.98 251.43 1110.04 252.1 1101.54 254.11C1083.28 258.41 1070 265.59 1054.87 276.39C1049.61 280.14 1042.38 284.82 1039.27 290.5C1040.47 295.1 1044.4 298.47 1047.52 301.97C1052.41 307.46 1060.9 320.76 1066.5 323.97C1070.38 323.26 1074.66 322.99 1077.81 320.35C1079.94 318.56 1080.69 316.2 1083.26 314.76C1087.38 312.45 1091.06 314.44 1095.39 312.79C1098.29 311.68 1099.23 308.91 1102.54 308.02C1107.34 306.73 1110.71 309.44 1115.5 308.94C1119.06 308.57 1120.62 305.96 1124.5 305.93C1130.18 305.89 1128.76 308.41 1132.63 309.81C1134.18 310.37 1137.58 310.99 1139.23 310.64C1140.78 310.31 1141.33 309.3 1143.05 309.5C1150.09 310.28 1148.48 314.16 1152.68 316.83C1156.35 319.17 1159.04 317.37 1162.31 319.16C1166.88 321.67 1165.66 324.02 1168.03 327.47C1171.11 331.95 1175.88 330.6 1179.02 335.47C1181.01 338.54 1179.53 341.97 1181.33 345.21C1183.65 349.4 1186.81 348.21 1188.68 353.78C1190.1 358.04 1187.32 361.13 1189.18 365.43C1190.26 367.94 1193.15 368.71 1193.8 371.56C1194.97 376.73 1191.44 380.24 1192.37 385.33C1193.23 390 1196.07 389.24 1195.1 396.5C1194.63 400.01 1191.72 401.78 1191.45 405.56C1191.21 409.12 1193.54 410.54 1193.49 413.11C1193.37 420.51 1187.82 420.8 1186.34 426.77C1185.54 429.96 1187.45 432.32 1186.83 435.39C1185.6 441.51 1180.76 441.17 1178.61 445.12C1176.46 449.09 1178.49 453.64 1175.84 457.34C1173.74 460.27 1170.5 460.33 1168.17 462.7C1165.31 465.61 1165.98 468.52 1164.26 471.78C1161.55 476.92 1156.03 476.36 1152.15 479.68C1149.49 481.96 1149.55 485.38 1147.15 487.63C1143.02 491.48 1137.95 489.92 1133.61 493.08C1130.82 495.11 1130.71 498.12 1127.28 499.73C1122.95 501.76 1119.16 499.63 1114.71 501.27C1112.85 501.95 1112.27 503.15 1110.85 504.31C1108.59 506.16 1105.28 506.51 1102.5 506.84C1094.75 501.22 1093.23 507.83 1087.5 507.95C1082 508.07 1082.22 504.72 1078.29 503.28C1073.68 501.59 1072.62 504.45 1068.7 503.73C1062.5 502.58 1064.34 499 1060.89 496.59C1057.86 494.46 1055.04 495.89 1051.95 494.56C1047.74 492.74 1048.58 488.57 1045.77 485.73C1043.65 483.59 1041.01 484.43 1038.81 482.68C1034.77 479.47 1037.12 475.01 1034.37 471.12C1031.79 467.47 1028.85 469.95 1026.65 463.82C1025.29 460.03 1027.9 456.61 1025.66 452.78C1023.9 449.79 1021.3 450.96 1020.18 446.38C1018.62 440.01 1026.17 436 1018.35 430.5C1017.89 427.8 1017.21 424.44 1018.35 421.78C1019.33 419.51 1020.75 419.34 1020.93 416.5C1021.19 412.56 1018.56 410.32 1018.73 406.5C1018.95 401.25 1023.53 399.83 1024.52 395.1C1025.21 391.82 1023.6 389.01 1024.26 385.68C1025.09 381.51 1028.24 380.96 1030.21 377.7C1032.39 374.1 1030.87 370.49 1032.3 366.77C1033.62 363.31 1037.8 362.35 1039.93 359.5C1039.3 354.77 1036.05 352.86 1033.06 349.42C1028.29 343.92 1023.58 338.17 1019.05 332.47C1016.87 329.72 1015.79 327.23 1012.5 325.79C1009.46 328.42 1009.42 331.78 1007.86 335.36C1004.48 343.11 1000.99 350.87 998.52 359C997.11 363.66 996.28 369.63 992.87 373.36C988.88 377.73 982.62 376.94 977.5 378.67C975.8 381.55 972.74 392.09 973.1 395.46C973.28 397.15 974.51 398.86 975.16 400.41C976.65 403.98 977.32 407.63 977.45 411.5C977.96 426.88 970.6 443.45 959.44 453.96C950.28 462.59 937.24 467.74 925.76 472.33C917.47 475.65 909.28 479.41 900.52 481.26C895.07 482.41 887.13 479.91 882.77 481.33C879.01 482.56 875.31 487.3 872.27 489.75C866.38 494.51 860.83 499.71 854.85 504.38C851.43 507.05 846.48 509.85 843.92 513.39C841.37 516.92 839.39 523.18 839.99 527.5C840.35 530.09 841.93 531.73 841.81 534.49C841.51 541.77 837.26 541.84 836.37 547.75C835.87 551.08 837.61 553.95 836.78 557.33C835.38 563.02 829.59 564.29 827.71 570.26C826.35 574.58 828.66 578.3 823.68 582.2C821.14 584.18 818.56 584.06 816.64 587.15C814.86 589.99 815.6 593.35 813.54 596.03C810.84 599.57 806.67 599.3 803.47 601.98C800.78 604.23 800.79 607.68 798.34 609.88C794.75 613.12 791.08 612.01 786.99 613.52C783.47 614.83 783.1 617.97 780.29 619.81C774.96 623.31 772.74 620.87 767.67 621.36C762.39 621.87 759.15 626.54 753.53 625.81C750.71 625.44 750.01 622.74 747.46 622.05C742.18 620.62 738.14 624.61 732.82 621.65C729.78 619.96 729.6 616.79 726.43 615.09C721.69 612.55 720.3 616.01 715.14 611.37C712.14 608.67 713.57 604.82 710.62 601.87C707.01 598.25 703.89 601.07 700.71 594.78C699.02 591.44 700.65 587.97 698.64 583.79C696.74 579.84 693.28 580.96 692.16 575.43C691.31 571.23 693.52 567.83 692.82 563.54C692.01 558.51 688.41 559.18 688.61 552.5C688.73 548.5 691.86 546.5 691.87 542.5C691.88 538.5 688.57 536.82 689.23 532.55C689.98 527.67 693.66 526.24 694.72 522.35C695.72 518.67 694.36 515.31 695.21 511.66C696.68 505.31 699.37 506.58 701.9 502.39C704.57 497.98 702.6 495.59 703.85 492.44C704.69 490.32 706.85 486.58 708.91 485.46C710.41 484.65 711.68 484.71 713 483.51C717.1 479.73 715.45 475.92 718.6 472.13C722.9 466.96 724.56 469.29 728.69 466.16C731.87 463.74 731.95 460.03 735.15 457.64C738.7 455.01 742.15 455.92 745.87 454.38C752.35 451.68 750.98 446.48 760.09 447.14C760.23 447.34 760.36 447.55 760.5 447.76C762 447.59 763.51 447.42 765.01 447.25C769.27 446.45 771.59 443.02 776.48 443.26C780.06 443.44 781.4 446.75 785.47 446.04C788.21 445.56 789.17 443.77 792.31 444.3C796.14 444.95 796.64 448.48 800.13 449.42C803.12 450.23 805.3 448.42 808.31 450.22C811.06 451.87 811.14 454.26 813.07 456.44C815.02 458.65 820.76 461.33 823.5 462.92C827.6 462.08 831 460.66 832.19 456.5C829.79 455.02 826.52 455.15 824.32 453.18C821.6 450.73 821.72 446.83 821.9 443.5C822.4 433.82 829.61 426.35 831.59 417.2C834.03 405.9 836.51 394.61 838.62 383.24C839.38 379.19 839.49 375.02 840.52 371.01C842.14 364.75 845.3 364.82 847.82 360.27C849.91 356.5 849 350.89 850.26 346.7C851.65 342.12 855.13 338.17 855.8 333.5C849.73 329.12 840.81 327.2 833.75 324.71C823.11 320.94 812.63 316.64 802.15 312.42C784.08 305.15 772.15 302.35 765.89 282C765.88 279 765.88 276 765.88 273C768.56 261.28 779.95 240.99 790.78 235.11C793.9 235.91 797.03 236.7 800.15 237.5C797.14 235.67 794.14 233.83 791.13 232C788.67 229.35 785.76 227.66 784.55 223.95C781.09 213.3 791.69 202.73 797.93 195.41C814.33 176.15 836.76 151.09 863 147.75C865.67 147.76 868.33 147.76 871 147.77C875.25 148.4 883.66 152.64 886.82 150.5C886.66 146.11 882.83 143.55 881.04 139.46C879.06 134.95 879.25 129.87 879.31 125.06C879.54 123.04 879.77 121.02 880 119C880.1 118.68 880.19 118.36 880.29 118.04C883.75 115.53 887.73 120.62 891.5 120.18C890.34 116.14 883.73 115.14 880.92 112C882.36 109.37 883.81 106.73 885.25 104.1C888.25 106.33 892.29 108.94 895.9 108.5C893.21 106 890.52 103.5 887.84 101C890.54 97.48 893.65 94.36 897.32 91.85C923.82 73.78 954.27 94.74 978.66 105.85C985.58 109 992.62 111.86 999.61 114.88C1002.87 116.29 1006.43 117.07 1007.59 120.5C1003.39 121.67 999.2 122.83 995 124ZM968.99 132.98C971.1 137.17 965.88 150.36 963 154.16C961.83 152.72 960.67 151.28 959.5 149.84C956 151.45 950.45 154.63 946.53 154.1C943.91 153.74 941.21 150.88 939.06 149.46C929.61 143.22 923.88 138.71 932.5 127.62C941.96 126.32 959.62 130.2 968.99 132.98ZM842.14 194.85C836.46 198.21 826.06 205.67 823.16 211.5C824.83 215.08 829.07 216.33 832.56 218C840.68 221.86 849.04 224.86 857.33 228.2C860.36 229.42 863.11 231.05 866.5 230.89C871.3 230.68 876.36 227.05 881 225.69C885.1 225.27 888.89 224.91 892.81 226.63C897.19 228.55 895.91 231.6 901.5 230.61C901.48 229.51 901.1 228.09 901.57 227.06C903.64 222.55 917.26 221.12 921.23 222.32C926 223.77 927.5 228.56 928.5 232.87C936.43 229.81 944.41 233.24 952.5 233.57C952.1 231.21 951.7 228.86 951.3 226.5C944.08 225.35 936.51 227.53 929.52 225.5C921.95 211.5 908.18 218.69 897.5 223.78C895.67 222.94 893.83 222.1 892 221.26C891.62 221.11 891.24 220.97 890.86 220.83C889.24 220.54 887.62 220.25 886 219.96C879.67 219.25 874.57 222.48 868.45 222.52C864.37 222.54 860.51 220.21 856.89 218.61C850.74 215.9 842.73 213.66 837.56 209.5C840 205.67 842.44 201.83 844.88 198C847.56 194.5 850.24 191 852.92 187.5C849.32 189.95 845.73 192.4 842.14 194.85ZM846 269.21C843.71 268.97 841.42 268.74 839.14 268.5C840.75 269.32 842.36 270.13 843.97 270.95C847.98 274.38 853.64 276.69 858.33 279.16C866.47 283.46 874.63 288.14 882.42 293.02C885.69 295.06 889.08 297.05 892.15 299.39C894.97 301.53 897.19 304.45 900.5 305.66C911.28 298.86 922.2 284.47 934.69 280.21C940.15 278.35 945.84 278.48 951.5 278.12C956.67 273.02 957.92 268.05 964.33 263.5C963.05 259.87 953.66 247.01 950.75 244.5C946.65 244.05 944.37 246.37 940.48 246.9C932.83 247.96 924.57 247.36 917.5 244.3C914.31 245.91 912.12 246.45 908.5 246C907.5 244.94 906.5 243.88 905.5 242.82C896.79 242.97 899.61 246.84 893.7 250.2C889.77 252.43 884.19 252.84 879.75 253.43C873.65 254.23 870.23 247.48 863.94 250.5C862.2 251.33 861.01 253.85 859.84 255.31C855.78 260.37 852.12 266.68 846 269.21ZM973.91 266.24C975.88 269.99 977.86 273.75 979.84 277.5C973.9 278.02 967.95 278.54 962 279.07C960.38 279.21 958.75 279.36 957.13 279.5C959.09 279.98 961.04 280.46 963 280.94C971.83 283.44 980.67 285.93 989.5 288.42C987 293.28 984.51 298.14 982.01 303C980.41 306.48 978.21 309.64 976.64 313.15C971.9 323.69 968.85 334.37 966.3 345.61C965.12 350.77 963.63 364.29 961.56 368.12C960.74 369.65 958.55 370.5 957.19 371.5C964.89 372.15 965.56 361.98 967.66 356.21C974.05 338.63 981.73 321.91 990 305.18C993.58 302.66 1001.75 289.8 1002.59 285.5C999.54 281.08 994.7 281.84 990.65 278.92C985.2 274.99 981.65 268.67 976.01 264.82C972.84 261.51 969.67 258.21 966.5 254.9C966.91 258.48 971.21 263.62 973.91 266.24ZM1028.5 303.3C1024.54 304.63 1023.48 307.75 1022.16 311.5C1024.7 316.94 1029.4 320.73 1033.15 325.3C1036.33 329.16 1038.84 334.58 1043.12 337.37C1046.84 339.8 1050.45 343.17 1054.5 340.1C1055.67 335.57 1052.86 332.84 1050.19 329.31C1044.62 321.94 1035.59 308.55 1028.5 303.3ZM876 434.84C878.69 435.73 881.45 436.38 884.08 437.44C890.14 439.88 896.59 448.66 887.27 451.69C875.12 455.64 861.53 455.71 848.94 456.5C857.47 463.68 878.8 460.25 888.36 455.84C896.47 452.09 898.71 443.01 892.1 436.4C888.8 433.09 884.21 432.07 880.2 429.95C875.95 427.51 869.57 426.22 868.29 420.3C867.68 417.47 869.57 414.73 870.6 412.19C873.51 404.98 877.54 398.54 881.19 391.7C883.71 386.99 887.59 381.62 888.73 376.35C889.39 373.32 888.52 370.09 889.59 367.11C890.94 363.39 893.96 359.84 895.89 356.36C902.98 343.58 914.03 324.13 903.5 310.61C902.55 315.75 903.23 321.05 901.55 326.13C899.24 333.1 892.63 342.58 889.18 349.7C886.02 356.2 883.38 363.75 876.94 367.5C878.98 369.48 880.22 370.73 881.04 373.5C873.93 387.57 864.33 400.48 862.19 416.52C861.83 419.21 861.39 422.76 862.2 425.37C863.86 430.71 870.88 434.83 876 434.84ZM1057.5 379.39C1053.62 381.17 1053.21 386.61 1051.96 390.44C1047.87 403 1046.52 415.28 1047.84 428.5C1050.17 451.78 1068.76 472.91 1092.5 475.03C1105.36 476.18 1119.21 470.5 1129.44 462.98C1147.14 449.95 1160.28 428.11 1163.66 406.41C1164.32 402.16 1163.93 397.78 1164.13 393.5C1164.74 380.07 1161.76 366.74 1154.01 355.52C1142.05 338.19 1119.98 332.61 1100.44 338.81C1094.98 340.54 1086.06 343.36 1083.09 348.5C1084.99 353.3 1097.24 368.07 1101.44 371.5C1105.45 370.77 1109.13 369.58 1113.25 370.35C1147.85 376.9 1137.36 427.54 1109.48 437.08C1100.58 440.12 1091.16 438.73 1084.21 432.31C1082.28 430.53 1081.17 427.94 1079.25 426.22C1076.01 423.31 1072.72 423.17 1071.14 418.44C1069.82 414.51 1069.63 409.92 1070.47 405.88C1070.95 403.58 1072.75 400.83 1072.67 398.49C1072.6 396.19 1070.32 394.21 1068.87 392.65C1065.07 388.55 1062.17 382.36 1057.5 379.39ZM1101.91 402C1101.61 403 1101.31 404 1101.01 405C1100.33 405.95 1099.66 406.9 1098.98 407.85C1098.01 409.07 1097.04 410.28 1096.07 411.5C1103.4 410.88 1107.6 402.39 1104.15 396.17C1101.91 392.97 1097.98 392.94 1095.57 389.96C1089.43 382.34 1084.32 373.99 1078.1 366.38C1075.41 363.09 1073.94 359.52 1069.5 359.27C1067.86 360.89 1066.6 362.78 1067.28 365.24C1067.89 367.45 1070.7 369.63 1072.11 371.38C1076.59 376.9 1081.21 382.27 1085.59 387.86C1087.31 390.06 1089.39 394.3 1091.89 395.62C1096.79 398.22 1099.74 394.7 1101.91 402ZM935.5 395.29C936.02 393.72 937.21 391.46 936.65 389.75C936.13 388.15 933.26 386.55 932 385.5C925.92 380.44 921.77 379.24 915.03 384.5C918.9 386.21 923.45 386.27 927.22 388.29C930.49 390.03 932.6 393.15 935.5 395.29ZM798.9 484.5C796.94 479.46 790.65 476.48 785.77 474.65C772.96 469.84 757.19 475.23 746.87 483.39C721.5 503.43 708.92 542.48 724.46 572.07C726.55 576.05 729.43 579.75 732.65 582.87C753.59 603.17 780.75 590.19 795.79 570.26C800.85 563.55 805 556.36 807.79 548.43C809.12 544.67 810.87 541.21 809.07 537.5C806.15 537.83 796.94 544.4 793.95 546.44C790.52 548.8 786.93 551.1 782.96 552.46C781.17 553.07 779.36 553.32 777.66 554.18C773.46 556.3 770.12 559.55 765.4 560.76C754.26 563.62 743.98 556.99 740.11 546.37C734.26 530.35 743.48 509.48 759.64 503.13C763.28 501.7 767.09 501.2 770.99 501.51C773.12 501.67 775.62 502.92 777.61 502.16C782 500.48 785.29 496.22 788.7 493.18C792 490.23 796.06 487.86 798.9 484.5ZM809.5 510.27C804.9 510.89 799.09 515.51 796.76 519.5C801.16 527.89 813.84 517.88 809.5 510.27ZM1211.91 781.7C1209.94 781.47 1207.97 781.24 1206 781.01C1205.38 780.9 1204.77 780.78 1204.15 780.67C1201.1 780.47 1198.05 780.26 1195 780.06C1186.36 779.6 1177.72 779.13 1169.08 778.67C1161.05 778.67 1153.03 778.68 1145 778.68C1106.47 778.58 1068.44 785.34 1030.77 792.41C1017.84 794.84 1004.63 797.89 991.99 801.51C985.93 803.25 976.11 806.9 970.08 806.5C974.72 801.54 980.82 797.81 986.29 793.82C998.32 785.04 1010.64 776.75 1023.07 768.57C1027.03 765.96 1031.42 764.04 1035.05 760.99C1036.25 760.16 1037.45 759.33 1038.65 758.5C1037.1 758.74 1035.55 758.97 1034 759.21C1026.53 759.88 1019.47 761.87 1012.21 763.58C1007.51 764.69 1002.59 765.29 997.92 766.49C995.69 767.07 993.55 768.19 991.28 768.71C954.25 777.32 918.47 790.43 881.77 800.39C869.32 803.77 857.34 808.82 844.98 812.51C839.65 814.09 834.07 817.69 828.44 817.5C832.76 811.54 848.32 801.14 854.91 796.41C872.67 783.67 890.25 770.91 908.94 759.45C914.58 755.99 929.66 748.33 933.29 744.13C934.88 743.26 936.47 742.38 938.06 741.5C936.27 741.95 934.48 742.39 932.68 742.84C924.23 742.67 916.56 746.19 908.38 747.78C892.25 750.93 876.33 755.5 860.4 759.79C814.69 772.1 768.49 783.3 723.29 797.68C714.51 800.48 705.52 802.61 696.71 805.34C687.76 808.11 678.77 811.1 669.65 813.31C663.81 814.72 656.65 818.82 650.94 817.5C655.84 812.59 661.73 808.91 667.11 804.59C681.92 792.7 697.04 781.13 712.3 769.81C748.85 742.69 783.92 713.85 821.24 687.73C835.25 677.93 849.84 668.65 864.71 660.23C871.93 656.15 881.8 652.16 887.72 646.5C879.32 646.22 871.08 649.23 863.19 651.6C856.47 653.61 849.58 655.47 842.84 657.43C836.86 659.18 831.07 662.41 825.24 664.66C796.82 675.63 770.86 692.53 745.3 708.8C719.69 725.1 693.53 740.52 667.25 755.75C658.53 760.81 649.32 765.35 640.23 769.71C635.81 771.84 631.61 774.48 627.24 776.68C611.27 784.72 594.78 791.93 578.24 798.72C547.05 811.52 514.08 821.11 481.25 828.61C461.49 833.12 440.61 836.41 420.47 838.77C411.07 839.87 401.28 839.31 392 841.15C389.64 841.32 387.29 841.5 384.93 841.67C371.9 841.68 358.87 841.69 345.84 841.69C343.56 841.52 341.28 841.34 339 841.16C327.06 839.05 314.59 839.29 302.55 837.7C289.42 835.95 276.47 832.74 263.58 829.76C250.12 826.64 233.98 821.24 221.84 814.64C212.52 809.57 202.9 804.86 195.33 797.19C189.26 791.05 183.71 783.73 181.31 775.3C176.51 758.45 185.71 740.63 197.35 728.86C215.86 710.16 238.92 698.38 262.99 688.47C274.14 683.89 285.8 678.88 297.55 676.11C306.32 674.05 314.94 671.44 323.72 669.35C328.64 668.18 334.41 667.96 339 665.99C340.65 665.76 342.29 665.52 343.94 665.29C350.96 664.14 357.98 663 365 661.85C366.63 661.59 368.26 661.32 369.88 661.06C372.23 660.8 374.57 660.54 376.91 660.28C377.61 660.17 378.3 660.05 379 659.94C380.99 659.72 382.97 659.51 384.96 659.3C385.64 659.19 386.32 659.08 387 658.97C389.83 658.97 392.67 658.97 395.5 658.96C395.66 659.22 395.82 659.47 395.98 659.73C377.99 663.97 360.45 670.97 343.34 677.8C319.47 687.32 296.27 697.79 275.33 712.87C261.45 722.87 242.34 738.09 245.16 757.46C247.44 773.11 266.45 780.82 279.25 785.3C291.34 789.54 303.85 791.44 316.47 793.18C340.56 796.52 364.69 797.11 389 795.71C392 795.58 395 795.45 398 795.32C422.7 794.34 447.57 790.31 471.71 785.36C482.53 783.14 493.62 781.57 504.26 778.62C523.57 773.28 543.03 768.18 561.93 761.43C610.74 744.02 658.13 722.42 703.16 696.63C743.51 673.52 784.5 651.42 826.95 632.44C867.07 614.5 910.77 600.05 955.4 604.4C998.24 608.57 1029.67 628.32 1063.14 653.38C1092.14 675.1 1118.42 700.1 1146.13 723.4C1159.52 734.65 1172.71 746.18 1186.17 757.34C1195.48 765.07 1206.45 772.26 1214.5 781.28C1213.64 781.42 1212.77 781.56 1211.91 781.7Z" fill="#0c0c0c" fill-rule="evenodd" stroke="#0c0c0c" stroke-width="0.25" stroke-linejoin="round"/>
<path d="M579.58 251.44C607.08 250.11 635.09 251.42 662.5 253.74C668.8 254.28 675.18 254.91 681.5 255.12C686.17 255.28 690.67 255.09 695.23 256.36C716.36 262.23 718.87 292.29 699.8 302.33C689.61 307.7 667.52 302.92 655.5 302.13C623.04 300 590.01 298.6 557.52 301.32C542.12 302.61 526.69 303.95 511.53 307.11C494 310.77 477.12 316.78 460.26 322.71C440.68 329.6 421.46 336.78 403.12 346.6C379.11 359.45 356.8 376.21 335.13 392.6C286.04 429.73 250.03 483.23 229.17 540.62C223.38 556.57 219.03 573.09 215.25 589.6C213.84 595.72 212.3 609.53 209.79 614.3C201.81 629.5 180.21 632.68 168.63 619.85C157.49 607.5 164.44 592.32 167.71 578.33C176.04 542.69 187.24 507.32 204.34 474.8C226.12 433.37 257.09 394.6 292.68 364.14C303.9 354.53 315.91 346.04 327.88 337.41C348.9 322.23 370.44 307.69 393.86 296.4C409.9 288.67 426.58 282.74 443.34 276.79C462.4 270.02 481.66 263.1 501.56 259.23C527.42 254.19 553.29 252.7 579.58 251.44ZM639.5 374C641.48 378.34 647.02 380.5 649.8 384.71C657 395.64 654.4 410.61 643.95 418.47C633.06 426.68 624.16 421.85 612.46 420.26C596.3 418.06 579.83 416.33 563.5 416.22C519.46 415.92 474.02 430.4 437.7 455.2C420.63 466.85 406.88 482.43 393.9 498.36C378.01 517.85 363.5 538.11 352.14 560.63C346.58 571.64 341.32 583.1 337.37 594.8C335.49 600.36 335.06 606.03 331.4 610.89C321.22 624.38 300.1 623.68 290.7 609.77C285.99 602.8 285.21 593.69 288.49 585.97C290.13 582.09 293.13 579.14 294.65 575.21C304.9 548.87 317.27 523.94 332.89 500.35C351.95 471.58 377.29 440.29 404.69 419.15C440 391.91 489.37 373.3 533.5 368.17C568.39 364.11 605.04 368.12 639.5 374ZM533.67 482.4C547.41 481.05 561.73 483.29 574.72 487.72C586.77 491.84 597.67 497.96 607.59 505.94C671.7 557.46 660.74 663.98 586.78 700.31C574.24 706.47 560.48 710.06 546.5 710.78C532.63 711.5 518.21 709.31 505.26 704.25C430.13 674.92 409.69 576.09 463.59 517.11C471.76 508.18 481.39 500.24 492.18 494.65C505.29 487.85 518.99 483.86 533.67 482.4Z" fill="#00d432" fill-rule="evenodd" stroke="#00d432" stroke-width="0.25" stroke-linejoin="round"/>
<path d="M887.84 101C890.52 103.5 893.21 106 895.9 108.5C892.29 108.94 888.25 106.33 885.25 104.1C886.11 103.07 886.98 102.03 887.84 101ZM880.92 112C883.73 115.14 890.34 116.14 891.5 120.18C887.73 120.62 883.75 115.53 880.29 118.04C880.19 116.19 880.1 114.35 880 112.5C880.31 112.33 880.61 112.17 880.92 112ZM970 129.08C969.67 129.55 969.33 130.03 969 130.5C969 131.33 968.99 132.15 968.99 132.98C959.62 130.2 941.96 126.32 932.5 127.62C923.88 138.71 929.61 143.22 939.06 149.46C941.21 150.88 943.91 153.74 946.53 154.1C950.45 154.63 956 151.45 959.5 149.84C960.67 151.28 961.83 152.72 963 154.16C962.9 155.14 962.81 156.12 962.71 157.11C961.97 156.47 961.24 155.83 960.5 155.19C956.55 156.27 951.64 159.93 947.53 159.73C945.1 159.62 942.34 157.38 940.36 156.12C935.5 153.04 926.48 147.86 923.06 143.42C921.29 141.13 921.9 137.62 919.8 135.69C915.28 131.53 905.1 130.51 903.07 124.5C909.21 127.08 915.36 129.65 921.5 132.23C922.28 129.98 923.07 127.74 923.85 125.5C919.12 121.86 910.18 119.68 907.38 114.5C913.71 113.97 920.54 121.95 926.66 122.59C928.81 122.82 931.22 121.89 933.5 122.06C945.96 122.96 958.15 125.22 970 129.08ZM880 119C879.77 121.02 879.54 123.04 879.31 125.06C879.21 123.21 879.1 121.35 879 119.5C879.33 119.33 879.67 119.17 880 119ZM995 124C994.83 124.33 994.67 124.67 994.5 125C993.04 124.91 991.58 124.81 990.12 124.72C991.75 124.48 993.37 124.24 995 124ZM871 147.77C868.33 147.76 865.67 147.76 863 147.75C863.17 147.5 863.33 147.25 863.5 147C865.83 147 868.17 147 870.5 147C870.67 147.26 870.83 147.51 871 147.77ZM844.88 198C843.97 196.95 843.05 195.9 842.14 194.85C845.73 192.4 849.32 189.95 852.92 187.5C850.24 191 847.56 194.5 844.88 198ZM881 225.69C882.64 223.85 886.77 222.17 889.28 223.22C891.66 224.21 889.43 224.94 893 224.5C892.67 223.42 892.33 222.34 892 221.26C893.83 222.1 895.67 222.94 897.5 223.78C908.18 218.69 921.95 211.5 929.52 225.5C936.51 227.53 944.08 225.35 951.3 226.5C951.7 228.86 952.1 231.21 952.5 233.57C944.41 233.24 936.43 229.81 928.5 232.87C927.5 228.56 926 223.77 921.23 222.32C917.26 221.12 903.64 222.55 901.57 227.06C901.1 228.09 901.48 229.51 901.5 230.61C895.91 231.6 897.19 228.55 892.81 226.63C888.89 224.91 885.1 225.27 881 225.69ZM886 219.96C887.62 220.25 889.24 220.54 890.86 220.83C889.41 220.88 887.95 220.94 886.5 221C886.33 220.65 886.17 220.31 886 219.96ZM791.13 232C794.14 233.83 797.14 235.67 800.15 237.5C797.03 236.7 793.9 235.91 790.78 235.11C790.9 234.07 791.02 233.04 791.13 232ZM976.01 264.82C975.31 265.29 974.61 265.77 973.91 266.24C971.21 263.62 966.91 258.48 966.5 254.9C969.67 258.21 972.84 261.51 976.01 264.82ZM846 269.21C845.32 269.79 844.64 270.37 843.97 270.95C842.36 270.13 840.75 269.32 839.14 268.5C841.42 268.74 843.71 268.97 846 269.21ZM765.88 273C765.88 276 765.88 279 765.89 282C765.59 281.83 765.3 281.67 765 281.5C765 278.83 765 276.17 765 273.5C765.29 273.33 765.58 273.17 765.88 273ZM962 279.07C962.33 279.69 962.67 280.32 963 280.94C961.04 280.46 959.09 279.98 957.13 279.5C958.75 279.36 960.38 279.21 962 279.07ZM982.01 303C983.18 303 984.34 303 985.5 303C985.83 303.67 986.17 304.33 986.5 305C987.67 305.06 988.84 305.12 990 305.18C981.73 321.91 974.05 338.63 967.66 356.21C965.56 361.98 964.89 372.15 957.19 371.5C958.55 370.5 960.74 369.65 961.56 368.12C963.63 364.29 965.12 350.77 966.3 345.61C968.85 334.37 971.9 323.69 976.64 313.15C978.21 309.64 980.41 306.48 982.01 303ZM1104.15 396.17C1107.6 402.39 1103.4 410.88 1096.07 411.5C1097.04 410.28 1098.01 409.07 1098.98 407.85C1099.49 407.9 1099.99 407.95 1100.5 408C1101 407.17 1101.5 406.33 1102 405.5C1101.67 405.33 1101.34 405.17 1101.01 405C1101.31 404 1101.61 403 1101.91 402C1102.27 401.83 1102.64 401.67 1103 401.5C1103.33 400.5 1103.67 399.5 1104 398.5C1104.05 397.72 1104.1 396.94 1104.15 396.17ZM880.2 429.95C884.21 432.07 888.8 433.09 892.1 436.4C898.71 443.01 896.47 452.09 888.36 455.84C878.8 460.25 857.47 463.68 848.94 456.5C861.53 455.71 875.12 455.64 887.27 451.69C896.59 448.66 890.14 439.88 884.08 437.44C881.45 436.38 878.69 435.73 876 434.84C877.4 433.21 878.8 431.58 880.2 429.95ZM760.09 447.14C761.73 447.17 763.37 447.21 765.01 447.25C763.51 447.42 762 447.59 760.5 447.76C760.36 447.55 760.23 447.34 760.09 447.14ZM395.98 659.73C395.82 659.47 395.66 659.22 395.5 658.96C392.67 658.97 389.83 658.97 387 658.97C387.17 658.64 387.33 658.32 387.5 658C389.66 658 394.4 657.09 396.28 658.22C397.99 659.25 395.55 658.11 397 659.5C396.66 659.58 396.32 659.65 395.98 659.73ZM384.96 659.3C382.97 659.51 380.99 659.72 379 659.94C379.17 659.63 379.33 659.31 379.5 659C381.32 659.1 383.14 659.2 384.96 659.3ZM376.91 660.28C374.57 660.54 372.23 660.8 369.88 661.06C370.09 660.71 370.29 660.35 370.5 660C372.64 660.09 374.77 660.19 376.91 660.28ZM369.88 661.06C368.26 661.32 366.63 661.59 365 661.85C365.17 661.57 365.33 661.28 365.5 661C366.96 661.02 368.42 661.04 369.88 661.06ZM343.94 665.29C342.29 665.52 340.65 665.76 339 665.99C339.17 665.66 339.33 665.33 339.5 665C340.98 665.1 342.46 665.19 343.94 665.29ZM933.29 744.13C933.09 743.7 932.89 743.27 932.68 742.84C934.48 742.39 936.27 741.95 938.06 741.5C936.47 742.38 934.88 743.26 933.29 744.13ZM1035.05 760.99C1034.7 760.4 1034.35 759.8 1034 759.21C1035.55 758.97 1037.1 758.74 1038.65 758.5C1037.45 759.33 1036.25 760.16 1035.05 760.99ZM1169.08 778.67C1161.05 778.67 1153.03 778.68 1145 778.68C1153.03 778.68 1161.05 778.67 1169.08 778.67ZM1195 780.06C1198.05 780.26 1201.1 780.47 1204.15 780.67C1201.27 780.78 1198.38 780.89 1195.5 781C1195.33 780.69 1195.17 780.38 1195 780.06ZM1206 781.01C1207.97 781.24 1209.94 781.47 1211.91 781.7C1210.1 781.8 1208.3 781.9 1206.5 782C1206.33 781.67 1206.17 781.34 1206 781.01ZM398 795.32C395 795.45 392 795.58 389 795.71C389.17 795.47 389.33 795.24 389.5 795C392.33 795.11 395.17 795.21 398 795.32ZM339 841.16C341.28 841.34 343.56 841.52 345.84 841.69C343.73 841.8 341.61 841.9 339.5 842C339.33 841.72 339.17 841.44 339 841.16ZM392 841.15C391.83 841.43 391.67 841.72 391.5 842C389.31 841.89 387.12 841.78 384.93 841.67C387.29 841.5 389.64 841.32 392 841.15Z" fill="#ffffff" fill-rule="evenodd" stroke="#ffffff" stroke-width="0.25" stroke-linejoin="round"/>
</svg>